<svg width="12" height="12" viewBox="0 0 12 12" fill="none" xmlns="http://www.w3.org/2000/svg">
<g clip-path="url(#clip0_1637_21537)">
<path d="M5.98008 10.9635H1.49501C1.21992 10.9635 0.996679 10.7402 0.996679 10.4651V1.49503C0.996679 1.21995 1.21994 0.996703 1.49501 0.996703H5.98008C6.25565 0.996703 6.4784 0.773953 6.4784 0.498375C6.4784 0.222797 6.25565 0 5.98008 0H1.49501C0.670758 0 0 0.670781 0 1.49503V10.4651C0 11.2894 0.670758 11.9601 1.49501 11.9601H5.98008C6.25565 11.9601 6.4784 11.7374 6.4784 11.4618C6.4784 11.1862 6.25565 10.9635 5.98008 10.9635Z" fill="#D01F36"/>
<path d="M11.8516 5.62521L8.82169 2.63517C8.62634 2.44181 8.3104 2.44432 8.11704 2.64016C7.92368 2.836 7.92567 3.15145 8.12203 3.34481L10.2873 5.48167H4.48514C4.20957 5.48167 3.98682 5.70442 3.98682 5.98C3.98682 6.25558 4.20957 6.47835 4.48514 6.47835H10.2873L8.12203 8.61522C7.9257 8.80858 7.9242 9.12403 8.11704 9.31987C8.21471 9.41854 8.34328 9.46837 8.47186 9.46837C8.59845 9.46837 8.72501 9.42053 8.82169 9.32484L11.8516 6.3348C11.9463 6.24112 12.0001 6.11353 12.0001 5.97998C12.0001 5.84648 11.9468 5.7194 11.8516 5.62521Z" fill="#D01F36"/>
</g>
<defs>
<clipPath id="clip0_1637_21537">
<rect width="12" height="12" fill="white"/>
</clipPath>
</defs>
</svg>
