<svg width="6" height="10" viewBox="0 0 6 10" fill="none" xmlns="http://www.w3.org/2000/svg">
<path d="M4.94861 9.33348C5.1629 9.25175 5.30117 9.07572 5.4563 8.92154C5.71501 8.66496 5.71477 8.37323 5.45749 8.1157C4.33046 6.98821 3.20344 5.86047 2.07404 4.73511C2.0156 4.67691 2.02178 4.65125 2.07594 4.59685C3.20487 3.47125 4.33189 2.34351 5.45891 1.21602C5.65847 1.01646 5.70907 0.777702 5.57104 0.566267C5.44489 0.372887 5.27693 0.208965 5.08593 0.0792524C4.90205 -0.0454708 4.67517 -0.0169626 4.5027 0.124865C4.47704 0.146009 4.4521 0.168578 4.42858 0.192097C3.07135 1.54909 1.71413 2.90607 0.35714 4.2633C0.154494 4.46595 0.111969 4.70185 0.236217 4.92303C0.267814 4.97909 0.312002 5.02518 0.35714 5.07032C1.71413 6.42755 3.07159 7.78406 4.42763 9.14247C4.51957 9.23465 4.62552 9.29618 4.74811 9.33372C4.81486 9.33348 4.88162 9.33348 4.94861 9.33348Z" fill="white"/>
</svg>
