<svg width="40" height="40" viewBox="0 0 40 40" fill="none" xmlns="http://www.w3.org/2000/svg">
<g clip-path="url(#clip0_3250_5474)">
<path d="M21.515 40C20.4492 40 19.3844 40 18.3186 40C17.9863 39.8343 17.6195 39.8771 17.2684 39.826C12.9177 39.1967 9.1442 37.3787 6.00514 34.3012C2.82754 31.185 0.898063 27.4157 0.216702 23.0108C0.148983 22.5711 0.178154 22.1138 0 21.6918C0 20.601 0 19.5102 0 18.4194C0.175028 18.01 0.143773 17.5661 0.212535 17.139C1.22207 10.9421 4.36113 6.10073 9.77034 2.94605C16.3985 -0.919162 23.2632 -1.00251 29.9142 2.82311C36.2559 6.46954 39.5669 12.1642 39.8857 19.481C40.0836 24.0391 38.7521 28.2012 36.0194 31.8633C32.7251 36.2796 28.3327 38.9269 22.8735 39.7854C22.4214 39.8573 21.9525 39.8312 21.515 40ZM32.6991 12.1319C31.8396 12.4507 30.9748 12.7445 30.033 12.7997C31.0092 12.084 31.7364 11.1974 32.1438 9.96699C31.1634 10.5254 30.2039 10.9015 29.1943 11.1568C28.938 11.2214 28.7536 11.1984 28.5401 10.9953C26.2605 8.83034 22.5485 9.16477 20.6815 11.6933C19.797 12.8904 19.4813 14.2364 19.699 15.7023C19.7449 16.0138 19.6855 16.0919 19.3729 16.0388C18.977 15.9711 18.5707 15.9711 18.1748 15.9044C14.7878 15.3356 11.8957 13.8301 9.53384 11.3255C9.29943 11.0765 9.07335 10.8202 8.82435 10.5452C8.26489 11.5089 8.03464 12.507 8.11799 13.5665C8.24613 15.2033 8.99313 16.5181 10.3892 17.5828C9.5974 17.5797 8.97229 17.3974 8.38053 17.1088C8.10444 16.9733 8.05965 17.0358 8.07944 17.3182C8.18362 18.8507 8.82956 20.1041 9.99329 21.0969C10.6246 21.6356 11.3644 21.9721 12.252 22.2179C11.4342 22.4346 10.7059 22.4148 9.93391 22.3242C10.3017 23.4161 10.9237 24.2558 11.7936 24.9163C12.6698 25.581 13.6741 25.9144 14.8545 26.0029C12.5427 27.7501 10.0131 28.4148 7.22618 28.2533C7.34495 28.3658 7.46163 28.4367 7.57936 28.5044C9.66824 29.7202 11.9176 30.4026 14.3336 30.5266C17.1955 30.6735 19.9501 30.2067 22.4391 28.7648C27.6368 25.755 30.1382 21.1407 30.2487 15.1855C30.2539 14.8938 30.3341 14.724 30.5623 14.5459C31.4155 13.8812 32.1792 13.1269 32.7491 12.1944C32.7658 12.1778 32.8012 12.1528 32.797 12.1444C32.773 12.0944 32.7345 12.1142 32.6991 12.1319Z" fill="#04A9F3"/>
<path d="M32.7461 12.1945C32.1762 13.1259 31.4125 13.8812 30.5592 14.5459C30.3311 14.7241 30.2509 14.8928 30.2456 15.1856C30.1352 21.1407 27.6338 25.754 22.436 28.7649C19.9471 30.2068 17.1925 30.6735 14.3306 30.5266C11.9145 30.4027 9.66521 29.7192 7.57633 28.5044C7.4586 28.4357 7.34191 28.3648 7.22314 28.2533C10.0101 28.4148 12.5396 27.7501 14.8515 26.003C13.6711 25.9155 12.6667 25.5821 11.7906 24.9163C10.9217 24.2569 10.2986 23.4161 9.93088 22.3243C10.7029 22.4159 11.4322 22.4347 12.249 22.218C11.3624 21.9711 10.6227 21.6356 9.99026 21.097C8.82653 20.1041 8.18059 18.8508 8.07641 17.3182C8.05766 17.0359 8.10141 16.9734 8.3775 17.1088C8.96926 17.3985 9.59436 17.5797 10.3862 17.5829C8.98906 16.5181 8.24206 15.2043 8.11496 13.5666C8.03265 12.507 8.26186 11.5079 8.82132 10.5453C9.07136 10.8203 9.2964 11.0766 9.53081 11.3256C11.8916 13.8291 14.7848 15.3356 18.1718 15.9045C18.5677 15.9711 18.9751 15.9711 19.3699 16.0389C19.6835 16.093 19.7418 16.0139 19.696 15.7023C19.4783 14.2375 19.7939 12.8904 20.6785 11.6934C22.5454 9.16482 26.2575 8.83143 28.537 10.9953C28.7506 11.1985 28.935 11.2214 29.1913 11.1568C30.2008 10.9016 31.1604 10.5255 32.1407 9.96704C31.7344 11.1985 31.0072 12.0851 30.03 12.7998C30.9718 12.7446 31.8376 12.4508 32.696 12.132C32.7148 12.1528 32.7304 12.1736 32.7461 12.1945Z" fill="#FDFEFE"/>
<path d="M32.6992 12.1316C32.7347 12.1138 32.7734 12.094 32.7963 12.1441C32.7995 12.1525 32.765 12.1775 32.7483 12.1942C32.7316 12.1733 32.7159 12.1525 32.6992 12.1316Z" fill="#FDFEFE"/>
</g>
<defs>
<clipPath id="clip0_3250_5474">
<rect width="40" height="40" fill="white"/>
</clipPath>
</defs>
</svg>
