<svg width="48" height="48" viewBox="0 0 48 48" fill="none" xmlns="http://www.w3.org/2000/svg">
<circle cx="24" cy="24" r="24" fill="black"/>
<g clip-path="url(#clip0_3790_7573)">
<path d="M15.1594 31.5935C15.1817 31.5635 15.1663 31.5378 15.1538 31.509C14.8791 30.8658 14.9666 30.4047 15.4628 29.9084C19.1171 26.2533 22.7717 22.5986 26.4264 18.9439C26.4864 18.8839 26.546 18.8244 26.6364 18.734C26.5241 18.7297 26.4457 18.7241 26.3668 18.7241C24.1354 18.722 21.9039 18.7207 19.6725 18.7177C18.9636 18.7168 18.4215 18.3667 18.2947 17.7461C18.1734 17.1543 18.17 16.5406 18.2985 15.9475C18.413 15.4191 18.8771 15.0621 19.414 15.012C19.5066 15.0034 19.5996 15.0013 19.6922 15.0013C23.6434 15.0004 27.5951 15 31.5472 15C32.2868 15 32.8007 15.3596 32.9571 15.996C32.9918 16.1369 32.9982 16.2874 32.9987 16.4335C33.0004 20.4002 33.0004 24.3677 32.9991 28.3348C32.9987 29.23 32.4643 29.7636 31.5703 29.7678C31.2836 29.7691 30.9969 29.7704 30.7102 29.7691C29.8364 29.7661 29.3046 29.2394 29.305 28.3673C29.3063 26.0973 29.3118 23.8273 29.3161 21.5568C29.3161 21.4951 29.3238 21.4334 29.3294 21.3558C29.2176 21.3777 29.176 21.4578 29.1203 21.5135C25.4755 25.1558 21.8285 28.7967 18.1918 32.4471C17.6698 32.9708 17.1166 33.1461 16.4378 32.8033C16.4219 32.7951 16.3966 32.8067 16.3752 32.8093C15.9702 32.4043 15.5648 31.9989 15.1594 31.5935Z" fill="white"/>
</g>
<defs>
<clipPath id="clip0_3790_7573">
<rect width="18" height="18" fill="white" transform="translate(15 15)"/>
</clipPath>
</defs>
</svg>
