<svg width="158" height="157" viewBox="0 0 158 157" fill="none" xmlns="http://www.w3.org/2000/svg">
<path d="M79.527 0L68.013 10.483L53.841 4.031L46.359 17.687L30.859 16.187L28.215 31.531L13.068 35.144L15.548 50.513L2.4 58.849L9.734 72.583L0 84.735L11.4 95.343L6.14 110L20.366 116.332L20.15 131.9L35.659 133.269L40.51 148.069L55.624 144.329L65.017 156.746L78.1 148.3L91.015 157L100.642 144.762L115.683 148.794L120.818 134.094L136.353 133.024L136.434 117.455L150.782 111.396L145.8 96.637L157.4 86.255L147.9 73.913L155.5 60.325L142.51 51.739L145.3 36.416L130.225 32.516L127.874 17.12L112.349 18.32L105.129 4.52L90.835 10.7L79.527 0Z" fill="#EB522F"/>
<path d="M101.889 37.817L108.989 27.937L110.457 28.991L108.986 31.034L109.121 31.134C110.396 29.984 112.028 29.9 113.762 31.144C116.045 32.784 116.214 35.264 114.577 37.544C112.94 39.824 110.572 40.462 108.277 38.811C107.543 38.38 106.992 37.6948 106.73 36.8853C106.467 36.0757 106.51 35.1979 106.851 34.418L106.791 34.374L103.491 38.968L101.889 37.817ZM108.768 36.966C110.353 38.103 111.706 38.158 112.974 36.393C114.242 34.628 113.744 33.353 112.204 32.247C110.559 31.065 109.089 31.175 107.949 32.76L107.849 32.895C106.764 34.405 107.193 35.836 108.765 36.966" fill="white"/>
<path d="M120.875 33.2058L112.414 42.0129L113.833 43.3764L122.294 34.5692L120.875 33.2058Z" fill="white"/>
<path d="M116.4 42.5988C117.5 41.7248 118.771 42.1538 120.044 43.4268L122.953 46.3778L123.367 46.0468C124.536 45.1148 124.541 44.2718 123.461 42.9188C122.417 41.6068 121.478 41.3048 120.437 42.1358L120.382 42.1798L119.162 40.6558L119.219 40.6118C120.83 39.3288 123.11 39.7038 124.906 41.9548C126.702 44.2058 126.28 46.1968 124.583 47.5478L120.283 50.9778L119.153 49.5658L120.921 48.1558L120.84 48.0558C119.349 48.6388 117.74 48.0818 116.455 46.4708C115.286 45.0028 115.232 43.5298 116.4 42.5978M117.9 45.9978C119.183 47.6088 120.646 48.2148 122.043 47.1038L119.513 44.5738C118.776 43.8528 118.285 43.6158 117.73 44.0588C117.16 44.5138 117.194 45.1158 117.899 45.9978" fill="white"/>
<path d="M118.241 53.522L119.831 52.71L120.638 54.285C120.727 54.5715 120.915 54.8168 121.17 54.9762C121.424 55.1357 121.727 55.1987 122.023 55.154L122.546 55.133L128.584 47.033L129.584 48.998L126.351 53.253L124.823 55.036L124.891 55.166L127.231 54.934L132.473 54.65L133.462 56.581L122.362 56.948C120.574 57.021 119.671 56.336 118.825 54.678L118.241 53.522Z" fill="white"/>
<path d="M123.365 64.4369L135.285 62.0269L135.644 63.7939L133.177 64.2939L133.211 64.4549C134.926 64.4779 136.181 65.5269 136.602 67.6199C137.159 70.3709 135.602 72.3049 132.844 72.8619C130.086 73.4189 127.928 72.2759 127.365 69.5049C127.121 68.6898 127.184 67.8137 127.543 67.042C127.901 66.2704 128.529 65.6566 129.309 65.3169L129.296 65.2469L123.755 66.3659L123.365 64.4369ZM128.984 68.4889C129.369 70.4019 130.327 71.3619 132.453 70.9299C134.598 70.4979 135.087 69.2299 134.71 67.3669C134.31 65.3859 133.156 64.4669 131.243 64.8529L131.082 64.8839C129.26 65.2509 128.602 66.5939 128.982 68.4839" fill="white"/>
<path d="M140.414 74.0526L128.228 74.719L128.335 76.6831L140.522 76.0166L140.414 74.0526Z" fill="white"/>
<path d="M130.748 77.849C132.148 77.956 132.783 79.137 132.848 80.931L132.97 85.067L133.496 85.106C134.985 85.221 135.56 84.606 135.696 82.883C135.824 81.212 135.342 80.356 134.017 80.254L133.944 80.249L134.092 78.307L134.165 78.312C136.216 78.468 137.627 80.293 137.408 83.158C137.189 86.023 135.529 87.197 133.369 87.031L127.888 86.612L128.026 84.812L130.277 84.984L130.287 84.859C128.798 84.271 127.999 82.766 128.158 80.716C128.299 78.847 129.258 77.733 130.75 77.848M129.532 81.348C129.373 83.399 130.032 84.836 131.809 84.974L131.681 81.403C131.632 80.378 131.434 79.87 130.726 79.815C130 79.758 129.617 80.221 129.531 81.348" fill="white"/>
<path d="M124.677 87.1011L126.392 87.5881L125.91 89.2881C125.782 89.5581 125.754 89.8651 125.831 90.1538C125.909 90.4426 126.087 90.6941 126.334 90.8631L126.734 91.2041L136.655 89.3801L136.055 91.4991L130.8 92.4151L128.473 92.6801L128.434 92.8211L130.298 94.2351L134.322 97.5901L133.731 99.6751L125.369 92.4051C124.013 91.2441 123.818 90.1301 124.323 88.3451L124.677 87.1011Z" fill="white"/>
<path d="M121.003 98.571L131.387 104.898L130.447 106.439L128.297 105.13L128.214 105.271C129.455 106.455 129.661 108.077 128.552 109.899C127.089 112.299 124.63 112.653 122.233 111.193C119.836 109.733 119.021 107.422 120.494 105.006C120.868 104.242 121.509 103.642 122.296 103.319C123.083 102.996 123.962 102.973 124.765 103.254L124.804 103.192L119.976 100.251L121.003 98.571ZM122.372 105.361C121.357 107.027 121.406 108.383 123.26 109.512C125.129 110.649 126.347 110.048 127.336 108.429C128.39 106.701 128.169 105.243 126.501 104.229L126.363 104.146C124.773 103.178 123.378 103.714 122.373 105.364" fill="white"/>
<path d="M117.598 109.385L116.341 110.9L125.739 118.7L126.997 117.184L117.598 109.385Z" fill="white"/>
<path d="M117.314 113.409C118.267 114.44 117.933 115.741 116.757 117.109L114.032 120.225L114.391 120.613C115.406 121.713 116.247 121.651 117.519 120.475C118.75 119.335 118.979 118.375 118.076 117.399L118.027 117.347L119.458 116.02L119.507 116.075C120.907 117.587 120.702 119.888 118.588 121.848C116.474 123.808 114.458 123.535 112.982 121.939L109.242 117.9L110.569 116.67L112.107 118.33L112.201 118.242C111.509 116.798 111.946 115.15 113.458 113.75C114.837 112.472 116.303 112.311 117.318 113.409M114.036 115.153C112.524 116.553 112.029 118.053 113.242 119.369L115.579 116.657C116.243 115.868 116.44 115.357 115.959 114.838C115.459 114.304 114.866 114.385 114.036 115.153" fill="white"/>
<path d="M106.576 116.043L107.505 117.568L105.995 118.489C105.717 118.6 105.487 118.807 105.347 119.072C105.207 119.337 105.166 119.643 105.232 119.936L105.293 120.457L113.825 125.868L111.943 127.018L107.459 124.118L105.567 122.731L105.442 122.806L105.851 125.12L106.525 130.325L104.672 131.455L103.472 120.42C103.266 118.645 103.881 117.692 105.472 116.72L106.576 116.043Z" fill="white"/>
<path d="M96.101 121.979L99.412 133.66L97.679 134.152L96.995 131.734L96.836 131.781C96.943 133.491 95.995 134.818 93.947 135.399C91.247 136.164 89.205 134.756 88.44 132.06C87.675 129.364 88.648 127.12 91.363 126.35C92.1555 126.044 93.0328 126.039 93.8286 126.337C94.6244 126.634 95.2835 127.213 95.681 127.964L95.751 127.946L94.208 122.512L96.101 121.979ZM92.501 127.879C90.627 128.41 89.745 129.435 90.336 131.52C90.929 133.62 92.236 134.008 94.055 133.493C95.999 132.941 96.827 131.723 96.296 129.849L96.249 129.693C95.749 127.905 94.357 127.353 92.501 127.879" fill="white"/>
<path d="M86.2277 127.604L84.2766 127.861L85.872 139.966L87.8232 139.709L86.2277 127.604Z" fill="white"/>
<path d="M83.2226 130.424C83.2016 131.829 82.0596 132.54 80.2716 132.714L76.1436 133.089L76.1356 133.617C76.1146 135.111 76.7626 135.65 78.4936 135.676C80.1696 135.702 80.9996 135.168 81.0186 133.836V133.763L82.9676 133.794V133.867C82.9366 135.928 81.1976 137.448 78.3196 137.407C75.4416 137.366 74.1686 135.775 74.2026 133.607L74.2856 128.107L76.0856 128.136L76.0516 130.398H76.1796C76.6796 128.875 78.1316 127.985 80.1906 128.017C82.0696 128.046 83.2406 128.938 83.2176 130.432M79.6416 129.432C77.5806 129.401 76.1856 130.145 76.1566 131.932L79.7166 131.586C80.7396 131.474 81.2366 131.245 81.2466 130.535C81.2566 129.806 80.7706 129.452 79.6406 129.435" fill="white"/>
<path d="M73.5955 124.988L73.2415 126.74L71.5115 126.388C71.2317 126.28 70.9224 126.275 70.6395 126.375C70.3566 126.475 70.1186 126.672 69.9685 126.932L69.6615 127.354L72.2435 137.122L70.0805 136.685L68.7615 131.505L68.3135 129.205L68.1725 129.174L66.8975 131.149L63.8545 135.425L61.7285 134.996L68.3495 126.084C69.4035 124.642 70.5015 124.364 72.3235 124.731L73.5955 124.988Z" fill="white"/>
<path d="M61.8661 122.194L56.3311 133.03L54.7231 132.208L55.8681 129.967L55.7221 129.894C54.6341 131.221 53.0311 131.549 51.1311 130.579C48.6311 129.301 48.0881 126.873 49.3661 124.372C50.6441 121.871 52.8871 120.887 55.4071 122.172C56.1976 122.487 56.8448 123.082 57.2258 123.843C57.6068 124.604 57.6952 125.478 57.4741 126.3L57.5391 126.334L60.1131 121.298L61.8661 122.194ZM55.1931 124.068C53.4571 123.18 52.1061 123.331 51.1201 125.263C50.1201 127.212 50.8201 128.386 52.5051 129.25C54.3051 130.171 55.7451 129.841 56.6351 128.102L56.7101 127.956C57.5561 126.298 56.9161 124.947 55.1931 124.068Z" fill="white"/>
<path d="M49.2004 118.472L42.1497 128.425L43.7555 129.563L50.8063 119.61L49.2004 118.472Z" fill="white"/>
<path d="M46.7676 119.621C45.8096 120.649 44.4846 120.41 43.0406 119.34L39.7276 116.852L39.3656 117.237C38.3476 118.33 38.4656 119.166 39.7356 120.347C40.9636 121.49 41.9356 121.647 42.8436 120.675L42.8926 120.62L44.3216 121.953L44.2726 122.005C42.8676 123.515 40.5556 123.478 38.4476 121.516C36.3396 119.554 36.4616 117.516 37.9396 115.933L41.6946 111.908L43.0146 113.136L41.4736 114.788L41.5676 114.876C42.9576 114.076 44.6336 114.392 46.1406 115.797C47.5146 117.075 47.7856 118.525 46.7676 119.62M44.7876 116.477C43.2806 115.072 41.7446 114.689 40.5266 115.996L43.3996 118.128C44.2346 118.728 44.7556 118.893 45.2426 118.373C45.7426 117.837 45.6146 117.249 44.7876 116.478" fill="white"/>
<path d="M43.3496 109.116L41.8946 110.157L40.8636 108.723C40.7331 108.453 40.51 108.238 40.2347 108.118C39.9595 107.998 39.6503 107.981 39.3636 108.07L38.8486 108.17L34.0966 117.089L32.8086 115.298L35.3696 110.605L36.6086 108.614L36.5226 108.494L34.2456 109.074L29.1026 110.141L27.8416 108.38L38.7596 106.353C40.5166 106.012 41.5106 106.553 42.5956 108.066L43.3496 109.116Z" fill="white"/>
<path d="M36.6476 99.115L25.2296 103.3L24.6076 101.606L26.9706 100.739L26.9136 100.585C25.2136 100.819 23.8136 99.973 23.0826 97.969C22.1166 95.335 23.3666 93.188 26.0026 92.22C28.6386 91.252 30.9526 92.056 31.9266 94.711C32.2914 95.4796 32.3618 96.3554 32.1245 97.1725C31.8871 97.9896 31.3585 98.6914 30.6386 99.145L30.6616 99.213L35.9686 97.269L36.6476 99.115ZM30.4796 95.958C29.8086 94.126 28.7176 93.324 26.6796 94.068C24.6236 94.823 24.3346 96.153 24.9876 97.93C25.6876 99.83 26.9626 100.567 28.7956 99.895L28.9496 99.838C30.6936 99.198 31.1436 97.771 30.4776 95.957" fill="white"/>
<path d="M29.8833 87.766L17.9346 90.2681L18.338 92.1947L30.2867 89.6927L29.8833 87.766Z" fill="white"/>
<path d="M27.3149 86.948C25.9149 87.048 25.1049 85.972 24.7769 84.205L24.0429 80.127L23.5149 80.163C22.0239 80.272 21.5449 80.963 21.6669 82.693C21.7889 84.367 22.3929 85.145 23.7209 85.048L23.7939 85.043L23.9349 86.99L23.8619 86.995C21.8079 87.143 20.1379 85.545 19.9289 82.672C19.7199 79.799 21.1939 78.393 23.3599 78.233L28.8539 77.833L28.9819 79.633L26.7279 79.794L26.7359 79.922C28.2979 80.286 29.3099 81.658 29.4609 83.711C29.5939 85.585 28.8079 86.829 27.3159 86.938M28.0029 83.286C27.8549 81.23 26.9909 79.903 25.2029 80.033L25.8589 83.549C26.0589 84.559 26.3329 85.033 27.0409 84.98C27.7699 84.928 28.0789 84.413 27.9989 83.286" fill="white"/>
<path d="M31.9506 76.9091L30.1806 76.6881L30.3996 74.9341C30.4865 74.6477 30.4682 74.3398 30.3479 74.0658C30.2276 73.7918 30.0133 73.5699 29.7436 73.4401L29.2986 73.1641L19.7646 76.4641L20.0376 74.2751L25.0976 72.5751L27.3566 71.9611L27.3746 71.8151L25.3136 70.6931L20.8266 67.9901L21.0976 65.8401L30.4676 71.7661C31.9826 72.7111 32.3416 73.7831 32.1126 75.6261L31.9506 76.9091Z" fill="white"/>
<path d="M33.8349 65.0299L22.6299 60.3399L23.3299 58.6769L25.6489 59.6479L25.7109 59.4969C24.3059 58.5129 23.8579 56.9439 24.6799 54.9789C25.7629 52.3919 28.1359 51.6679 30.7229 52.7509C33.3099 53.8339 34.4599 55.9909 33.3699 58.5969C33.1155 59.4075 32.5725 60.0967 31.844 60.5337C31.1154 60.9707 30.2518 61.1252 29.4169 60.9679L29.3879 61.0359L34.5959 63.2169L33.8349 65.0299ZM31.4609 58.5299C32.2129 56.7299 31.9609 55.4039 29.9609 54.5659C27.9469 53.7229 26.8329 54.5009 26.1009 56.2469C25.3199 58.1109 25.7569 59.5189 27.5559 60.2709L27.7069 60.3329C29.4199 61.0509 30.7159 60.3099 31.4629 58.5329" fill="white"/>
<path d="M26.1477 45.8095L25.1355 47.4949L35.5935 53.7755L36.6057 52.09L26.1477 45.8095Z" fill="white"/>
<path d="M35.2899 49.74C34.1899 48.863 34.3319 47.528 35.2899 46.008L37.5229 42.52L37.1119 42.189C35.9459 41.255 35.1239 41.437 34.0409 42.789C32.9919 44.096 32.9059 45.079 33.9409 45.91L33.9979 45.957L32.7829 47.476L32.7259 47.429C31.1199 46.143 30.9819 43.837 32.7829 41.591C34.5839 39.345 36.6169 39.316 38.3079 40.672L42.6019 44.113L41.4719 45.521L39.7099 44.108L39.6289 44.208C40.5289 45.535 40.3369 47.23 39.0489 48.836C37.8749 50.299 36.4489 50.679 35.2879 49.742M38.2709 47.535C39.5589 45.929 39.8269 44.37 38.4349 43.251L36.5249 46.275C35.9859 47.152 35.8639 47.683 36.4179 48.128C36.9719 48.573 37.5659 48.417 38.2709 47.535" fill="white"/>
<path d="M45.5012 45.549L44.3562 44.18L45.7122 43.043C45.9712 42.8914 46.1677 42.6526 46.2664 42.3693C46.3652 42.0859 46.3598 41.7767 46.2512 41.497L46.1132 40.997L36.8662 36.919L38.5582 35.503L43.4252 37.703L45.5012 38.79L45.6132 38.696L44.8632 36.468L43.4192 31.421L45.0822 30.021L47.9162 40.76C48.3842 42.483 47.9162 43.516 46.4922 44.713L45.5012 45.549Z" fill="white"/>
<path d="M54.9995 38.0979L49.9675 27.0549L51.6075 26.3049L52.6485 28.5899L52.7965 28.5219C52.4345 26.8479 53.1715 25.3939 55.1075 24.5089C57.6585 23.3479 59.8915 24.4309 61.0515 26.9819C62.2115 29.5329 61.5925 31.8959 59.0265 33.0639C58.2894 33.4855 57.4232 33.6222 56.592 33.448C55.7609 33.2739 55.0224 32.801 54.5165 32.1189L54.4485 32.1499L56.7885 37.2819L54.9995 38.0979ZM57.6675 31.7209C59.4395 30.9119 60.1585 29.7659 59.2575 27.7959C58.3575 25.8099 57.0085 25.6199 55.2855 26.4059C53.4455 27.2439 52.8125 28.5739 53.6195 30.3439L53.6875 30.4919C54.4575 32.1839 55.9105 32.5189 57.6665 31.7199" fill="white"/>
<path d="M62.3414 18.7873L60.4502 19.3369L63.8587 31.0652L65.7499 30.5156L62.3414 18.7873Z" fill="white"/>
<path d="M66.3652 27.9C66.1572 26.513 67.1652 25.623 68.9052 25.162L72.9162 24.118L72.8352 23.595C72.6142 22.117 71.8882 21.69 70.1752 21.948C68.5152 22.195 67.7862 22.859 67.9842 24.176L67.9942 24.246L66.0632 24.535L66.0532 24.462C65.7532 22.427 67.2142 20.639 70.0612 20.214C72.9082 19.789 74.4232 21.146 74.7462 23.29L75.5612 28.735L73.7762 29.003L73.4402 26.767L73.3152 26.785C73.0732 28.37 71.7852 29.485 69.7472 29.785C67.8912 30.063 66.5902 29.374 66.3662 27.895M70.0592 28.301C72.0972 28.001 73.3542 27.034 73.0892 25.266L69.6332 26.19C68.6412 26.466 68.1912 26.776 68.2952 27.478C68.4042 28.199 68.9402 28.467 70.0602 28.3" fill="white"/>
<path d="M76.7156 31.768L76.8016 29.985L78.5636 30.071C78.8563 30.1356 79.1624 30.0936 79.4268 29.9524C79.6912 29.8112 79.8965 29.5802 80.0056 29.301L80.2476 28.838L76.2266 19.585L78.4266 19.685L80.5066 24.599L81.2926 26.806L81.4386 26.814L82.3986 24.672L84.7566 19.99L86.9196 20.09L81.7296 29.89C80.9046 31.472 79.8636 31.915 78.0076 31.826L76.7156 31.768Z" fill="white"/>
<path d="M95.0912 34.414L93.7912 32.348L91.5792 33.384L91.6022 30.94L89.1792 30.617L90.5192 28.574L88.6582 26.992L90.8912 25.998L90.1782 23.661L92.5962 24.031L93.2602 21.681L95.0912 23.293L96.9212 21.677L97.5852 24.027L100.003 23.657L99.2912 25.995L101.524 26.989L99.6612 28.571L101.001 30.614L98.5782 30.937L98.6012 33.381L96.3912 32.348L95.0912 34.414Z" fill="white"/>
</svg>
