<svg width="24" height="24" viewBox="0 0 24 24" fill="none" xmlns="http://www.w3.org/2000/svg">
<circle cx="12" cy="12" r="12" fill="black"/>
<path d="M12.3143 7.05801C9.37588 7.56058 8.39363 10.3329 8.26982 11.6562C9.5894 11.0101 10.4211 10.6764 11.5364 10.4641C12.6517 10.2518 13.8221 10.5078 15.3642 9.94317C18.5844 8.76415 18.2173 5.55352 17.8637 5C17.0099 6.24351 15.9873 6.4298 12.3143 7.05801Z" fill="white"/>
<path d="M12.3143 7.05801C9.37588 7.56058 8.39363 10.3329 8.26982 11.6562C9.5894 11.0101 10.4211 10.6764 11.5364 10.4641C12.6517 10.2518 13.8221 10.5078 15.3642 9.94317C18.5844 8.76415 18.2173 5.55352 17.8637 5C17.0099 6.24351 15.9873 6.4298 12.3143 7.05801Z" fill="white"/>
<path d="M12.3143 7.05801C9.37588 7.56058 8.39363 10.3329 8.26982 11.6562C9.10208 10.441 10.2916 9.12375 11.4069 8.91146C12.5222 8.69917 13.2255 8.87782 14.7456 8.25597C17.1729 7.26299 18.2173 5.55352 17.8637 5C17.0099 6.24351 15.9873 6.4298 12.3143 7.05801Z" fill="white"/>
<path d="M12.0399 11.3773C6.40555 12.0507 7.47161 17.5971 7.30292 19.4C8.39843 17.8932 8.2211 16.4348 10.3511 15.2716C11.927 14.4111 13.1735 14.8851 15.1668 14.3262C19.286 13.1712 18.91 9.57656 18.4733 8.54427C17.2281 9.9979 17.2836 11.1873 12.0399 11.3773Z" fill="white"/>
<path d="M12.0399 11.3773C8.18728 11.7968 7.59197 14.5975 7.41155 16.0794C7.61392 15.8919 7.84475 14.7531 10.3595 14.4987C11.2382 14.4097 13.7674 14.794 15.1669 14.3262C19.2861 13.1712 18.91 9.57655 18.4733 8.54427C17.2282 9.99789 17.2837 11.1873 12.0399 11.3773Z" fill="white"/>
<path d="M12.0399 11.3773C8.18728 11.7968 7.59197 14.5975 7.41155 16.0794C7.99747 15.2477 8.02899 14.6739 10.2907 13.6459C11.4027 13.0944 13.3236 13.35 14.7231 12.8822C18.8423 11.7272 18.91 9.57655 18.4733 8.54427C17.2282 9.99789 17.2837 11.1873 12.0399 11.3773Z" fill="white"/>
<path d="M7.6381 14.8868C9.54463 14.7935 11.1987 13.4037 11.6426 11.4366C9.10915 11.8054 8.02109 13.4225 7.6381 14.8868Z" fill="white"/>
<path d="M7.76146 9.91599C8.08059 8.54628 8.54741 7.88824 9.69019 6.96536C8.15179 5.56421 6.16218 6.04675 5 6.89976C6.01177 7.39426 6.98635 8.0247 7.76146 9.91599Z" fill="white"/>
<path d="M8.26986 11.6613C8.51483 9.38639 9.98553 8.00388 10.7307 7.67626C11.3509 8.43164 11.7227 9.39352 11.7346 10.4284C10.6281 10.5536 8.95736 11.3079 8.26986 11.6613Z" fill="white"/>
</svg>
