<svg width="20" height="20" viewBox="0 0 20 20" fill="none" xmlns="http://www.w3.org/2000/svg">
<path d="M0 9.68729C0.0621248 9.66118 0.0438528 9.59749 0.0574263 9.55208C0.292874 8.74863 0.95171 8.2438 1.78961 8.24276C3.87314 8.24015 5.95615 8.2391 8.03968 8.24641C8.21613 8.24693 8.24745 8.19995 8.24693 8.03393C8.24067 5.9504 8.24015 3.8674 8.24432 1.78387C8.24537 0.781519 9.02219 -0.000521796 10.001 2.61223e-07C10.9731 0.000522318 11.752 0.776299 11.7562 1.76664C11.7625 3.36152 11.7578 4.95693 11.7583 6.55181C11.7583 7.05299 11.7646 7.55469 11.7546 8.05586C11.7515 8.2083 11.7912 8.24589 11.9441 8.24589C14.0339 8.24067 16.1237 8.23962 18.2135 8.24328C19.2174 8.24537 19.9995 9.01958 20 9.99843C20.0005 10.9705 19.2242 11.7515 18.2354 11.7557C16.7706 11.7619 15.3057 11.7572 13.8408 11.7572C13.2091 11.7572 12.5779 11.7619 11.9462 11.7536C11.7985 11.7515 11.7536 11.7833 11.7541 11.9405C11.7604 14.024 11.7593 16.107 11.7572 18.1905C11.7562 19.0431 11.2362 19.7296 10.4474 19.9431C10.3769 19.9624 10.2908 19.9285 10.2344 19.9995C10.0392 19.9995 9.84391 19.9995 9.64866 19.9995C9.64344 19.9572 9.60689 19.9556 9.57766 19.9457C8.65257 19.6283 8.24223 19.0556 8.24223 18.082C8.24223 16.0465 8.24015 14.0104 8.24589 11.9749C8.24641 11.8048 8.213 11.7515 8.03028 11.7525C5.94257 11.7599 3.85487 11.7599 1.76716 11.7557C0.99504 11.7541 0.33255 11.2733 0.0897938 10.5586C0.0616027 10.4756 0.0678674 10.3801 0 10.3117C0 10.1039 0 9.89559 0 9.68729Z" fill="black"/>
</svg>
