<svg width="24" height="24" viewBox="0 0 24 24" fill="none" xmlns="http://www.w3.org/2000/svg">
<circle cx="12" cy="12" r="12" fill="white"/>
<g clip-path="url(#clip0_24_24)">
<path d="M13.125 6H7.375C6.615 6 6 6.615 6 7.375V15.125C6 15.885 6.615 16.5 7.375 16.5H11.065L11.175 15.885C11.225 15.605 11.355 15.355 11.555 15.15L14.5 12.21V7.375C14.5 6.615 13.885 6 13.125 6ZM8 8H10C10.275 8 10.5 8.225 10.5 8.5C10.5 8.775 10.275 9 10 9H8C7.725 9 7.5 8.775 7.5 8.5C7.5 8.225 7.725 8 8 8ZM10.5 13H8C7.725 13 7.5 12.775 7.5 12.5C7.5 12.225 7.725 12 8 12H10.5C10.775 12 11 12.225 11 12.5C11 12.775 10.775 13 10.5 13ZM12.5 11H8C7.725 11 7.5 10.775 7.5 10.5C7.5 10.225 7.725 10 8 10H12.5C12.775 10 13 10.225 13 10.5C13 10.775 12.775 11 12.5 11Z" fill="#EB522F"/>
<path d="M12.2647 18.0003C12.1662 18.0003 12.0702 17.9613 11.9997 17.8903C11.9132 17.8038 11.8742 17.6808 11.8957 17.5598L12.1607 16.0573C12.1737 15.9818 12.2107 15.9118 12.2647 15.8573L15.9772 12.1453C16.4332 11.6883 16.8812 11.8118 17.1262 12.0568L17.7447 12.6753C18.0862 13.0163 18.0862 13.5713 17.7447 13.9128L14.0322 17.6253C13.9782 17.6798 13.9082 17.7163 13.8322 17.7293L12.3297 17.9943C12.3082 17.9983 12.2862 18.0003 12.2647 18.0003ZM13.7672 17.3603H13.7722H13.7672Z" fill="#EB522F"/>
</g>
<defs>
<clipPath id="clip0_24_24">
<rect width="12" height="12" fill="white" transform="translate(6 6)"/>
</clipPath>
</defs>
</svg>
