<svg width="16" height="16" viewBox="0 0 16 16" fill="none" xmlns="http://www.w3.org/2000/svg">
<g clip-path="url(#clip0_3382_7455)">
<path d="M8 0C3.58883 0 0 3.58874 0 8C0 12.4113 3.58883 16.0001 8 16.0001C12.4112 16.0001 16 12.4113 16 8C16 3.58874 12.4113 0 8 0ZM12.5937 6.64873L7.56775 11.6747C7.35404 11.8884 7.06997 12.0061 6.76777 12.0061C6.46558 12.0061 6.1815 11.8884 5.9678 11.6747L3.40626 9.11319C3.19255 8.89948 3.07485 8.6154 3.07485 8.31321C3.07485 8.01094 3.19255 7.72686 3.40626 7.51315C3.61988 7.29945 3.90396 7.18174 4.20623 7.18174C4.50843 7.18174 4.79259 7.29945 5.00621 7.51324L6.76769 9.27463L10.9936 5.0487C11.2073 4.83499 11.4914 4.71737 11.7936 4.71737C12.0958 4.71737 12.3799 4.83499 12.5936 5.0487C13.0348 5.48997 13.0348 6.20763 12.5937 6.64873Z" fill="#14B64D"/>
</g>
<defs>
<clipPath id="clip0_3382_7455">
<rect width="16" height="16" fill="white"/>
</clipPath>
</defs>
</svg>
