<svg width="36" height="36" viewBox="0 0 36 36" fill="none" xmlns="http://www.w3.org/2000/svg">
<circle cx="18" cy="18" r="18" fill="url(#paint0_linear_14_20)"/>
<path d="M24.6319 27.473H11.3688C10.8477 27.473 10.4214 27.0466 10.4214 26.5256V17.9993H25.5793V26.5256C25.5793 27.0466 25.153 27.473 24.6319 27.473Z" fill="white" fill-opacity="0.3"/>
<path d="M26.5266 17.9992H9.47398C8.95293 17.9992 8.52661 17.5729 8.52661 17.0518V15.1571C8.52661 14.636 8.95293 14.2097 9.47398 14.2097H26.5266C27.0477 14.2097 27.474 14.636 27.474 15.1571V17.0518C27.474 17.5729 27.0477 17.9992 26.5266 17.9992Z" fill="white" fill-opacity="0.6"/>
<path d="M18.0002 14.2099C19.715 14.2004 21.0602 13.8688 21.9129 13.5846C23.0118 13.2246 23.9497 12.7604 24.736 12.0309C25.1055 11.6899 25.4181 11.292 25.5318 10.8278C25.655 10.3067 25.5034 9.74779 25.1529 9.33095C24.8023 8.9141 24.2718 8.63937 23.7034 8.5541C23.2487 8.48779 22.7655 8.53516 22.3676 8.75305C22.0266 8.94253 21.7613 9.23621 21.5529 9.54884C21.1076 10.2215 20.8992 10.9888 20.5202 11.6899C20.0087 12.6373 19.2413 13.2436 18.8245 13.5846C18.5118 13.8594 18.2181 14.0678 18.0002 14.2099Z" stroke="white" stroke-opacity="0.3" stroke-width="1.2" stroke-linecap="round" stroke-linejoin="round"/>
<path d="M18.0005 14.2099C16.2858 14.2004 14.9405 13.8688 14.0879 13.5846C12.989 13.2341 12.0416 12.7604 11.2647 12.0404C10.8953 11.6994 10.5732 11.3015 10.469 10.8373C10.3363 10.3162 10.4879 9.75726 10.8384 9.33095C11.189 8.9141 11.7195 8.63937 12.2879 8.5541C12.7426 8.48779 13.2258 8.53516 13.6237 8.75305C13.9647 8.94253 14.23 9.23621 14.4384 9.54884C14.8837 10.2215 15.0921 10.9888 15.4711 11.6899C15.9826 12.6373 16.75 13.2436 17.1668 13.5846C17.4889 13.8594 17.7826 14.0678 18.0005 14.2099Z" stroke="white" stroke-opacity="0.3" stroke-width="1.2" stroke-linecap="round" stroke-linejoin="round"/>
<path d="M18.0002 14.2097V27.4729" stroke="white" stroke-opacity="0.3" stroke-width="1.2" stroke-linecap="square" stroke-linejoin="round"/>
<path d="M18.0003 13.2625C18.2656 13.2625 18.474 13.4709 18.474 13.7361V14.2098H17.5266V13.7361C17.5266 13.4709 17.735 13.2625 18.0003 13.2625Z" stroke="white" stroke-opacity="0.3" stroke-width="1.2" stroke-linecap="round"/>
<defs>
<linearGradient id="paint0_linear_14_20" x1="20.8421" y1="12.7895" x2="4.73684" y2="35.9551" gradientUnits="userSpaceOnUse">
<stop stop-color="#EB522F"/>
<stop offset="1" stop-color="#9950D3"/>
</linearGradient>
</defs>
</svg>
