<svg width="11" height="6" viewBox="0 0 11 6" fill="none" xmlns="http://www.w3.org/2000/svg">
<path d="M0.865489 0.87591C0.953049 0.646323 1.14166 0.498185 1.30685 0.331976C1.58174 0.054791 1.89431 0.0550455 2.17022 0.330703C3.37823 1.5382 4.58649 2.7457 5.79221 3.95574C5.85457 4.01836 5.88206 4.01174 5.94034 3.95371C7.14631 2.74417 8.35458 1.53667 9.56258 0.329176C9.77639 0.11537 10.0322 0.0611543 10.2587 0.209037C10.4659 0.344194 10.6415 0.524148 10.7805 0.728791C10.9141 0.925799 10.8836 1.16888 10.7316 1.35367C10.709 1.38116 10.6848 1.40788 10.6596 1.43308C9.20573 2.88722 7.75185 4.34136 6.29771 5.79524C6.08059 6.01236 5.82784 6.05792 5.59087 5.9248C5.5308 5.89095 5.48142 5.84361 5.43306 5.79524C3.97892 4.34136 2.52555 2.88697 1.07013 1.4341C0.971375 1.33559 0.905451 1.22207 0.865234 1.09074C0.865489 1.01921 0.865489 0.947688 0.865489 0.87591Z" fill="white"/>
</svg>
