<svg width="7" height="11" viewBox="0 0 7 11" fill="none" xmlns="http://www.w3.org/2000/svg">
<path d="M5.86447 10.6666C6.10937 10.5732 6.26739 10.372 6.44468 10.1958C6.74035 9.9026 6.74008 9.56919 6.44604 9.27488C5.15802 7.98631 3.86999 6.69747 2.57925 5.41134C2.51246 5.34483 2.51952 5.3155 2.58142 5.25333C3.87162 3.96693 5.15964 2.67809 6.44767 1.38952C6.67573 1.16146 6.73357 0.888593 6.57582 0.646953C6.43165 0.425947 6.2397 0.238607 6.0214 0.0903649C5.81126 -0.0521759 5.55197 -0.0195951 5.35486 0.142494C5.32553 0.166658 5.29703 0.192451 5.27015 0.21933C3.71903 1.77017 2.16792 3.32102 0.617073 4.87213C0.385478 5.10373 0.336879 5.37333 0.478877 5.62611C0.514987 5.69018 0.565487 5.74285 0.617073 5.79444C2.16792 7.34556 3.7193 8.89586 5.26906 10.4483C5.37413 10.5537 5.49523 10.624 5.63532 10.6669C5.71162 10.6666 5.78791 10.6666 5.86447 10.6666Z" fill="white"/>
</svg>
