<svg width="30" height="24" viewBox="0 0 30 24" fill="none" xmlns="http://www.w3.org/2000/svg">
<path d="M15.6914 4.38281C16.2703 4.02734 16.6562 3.38242 16.6562 2.65625C16.6562 1.53398 15.7473 0.625 14.625 0.625C13.5027 0.625 12.5938 1.53398 12.5938 2.65625C12.5938 3.3875 12.9797 4.02734 13.5586 4.38281L10.6488 10.2023C10.1867 11.1266 8.98828 11.3906 8.18086 10.7457L3.65625 7.125C3.91016 6.78477 4.0625 6.36328 4.0625 5.90625C4.0625 4.78398 3.15352 3.875 2.03125 3.875C0.908984 3.875 0 4.78398 0 5.90625C0 7.02852 0.908984 7.9375 2.03125 7.9375H2.0668L4.3875 20.7039C4.6668 22.2477 6.0125 23.375 7.58672 23.375H21.6633C23.2324 23.375 24.5781 22.2527 24.8625 20.7039L27.1832 7.9375H27.2188C28.341 7.9375 29.25 7.02852 29.25 5.90625C29.25 4.78398 28.341 3.875 27.2188 3.875C26.0965 3.875 25.1875 4.78398 25.1875 5.90625C25.1875 6.36328 25.3398 6.78477 25.5938 7.125L21.0691 10.7457C20.2617 11.3906 19.0633 11.1266 18.6012 10.2023L15.6914 4.38281Z" fill="#DA8300"/>
</svg>
