<svg width="20" height="20" viewBox="0 0 20 20" fill="none" xmlns="http://www.w3.org/2000/svg">
<g clip-path="url(#clip0_3786_9452)">
<path d="M19.9999 10.2917C19.9352 10.322 19.9413 10.3887 19.9271 10.4392C19.6947 11.3102 18.8905 11.88 17.9771 11.88C12.6583 11.876 7.33949 11.88 2.0207 11.876C0.844589 11.876 -0.0324439 10.9909 -0.000110888 9.86124C0.0302013 8.8185 0.907235 8.00613 2.01868 8.00209C3.31402 7.99603 4.60937 8.00007 5.90471 8.00007C9.90794 8.00007 13.9132 8.00209 17.9164 7.99805C18.6015 7.99805 19.1714 8.22842 19.5998 8.77808C19.7796 9.00845 19.8847 9.27116 19.9575 9.55003C19.9655 9.58034 19.9554 9.61672 19.9979 9.62682C19.9999 9.84911 19.9999 10.0694 19.9999 10.2917Z" fill="white"/>
</g>
<defs>
<clipPath id="clip0_3786_9452">
<rect width="20" height="3.87996" fill="white" transform="translate(0 8)"/>
</clipPath>
</defs>
</svg>
