<svg width="20" height="20" viewBox="0 0 20 20" fill="none" xmlns="http://www.w3.org/2000/svg">
<path fill-rule="evenodd" clip-rule="evenodd" d="M9.99967 0.833336C4.93717 0.833336 0.833008 4.9375 0.833008 10C0.833008 15.0625 4.93717 19.1667 9.99967 19.1667C15.0622 19.1667 19.1663 15.0625 19.1663 10C19.1663 4.9375 15.0622 0.833336 9.99967 0.833336ZM13.973 8.45C14.0462 8.36637 14.1019 8.26895 14.1368 8.16348C14.1718 8.058 14.1853 7.9466 14.1766 7.83582C14.1678 7.72505 14.137 7.61714 14.086 7.51844C14.0349 7.41975 13.9647 7.33226 13.8793 7.26112C13.7939 7.18998 13.6952 7.13664 13.5889 7.10422C13.4826 7.0718 13.3709 7.06097 13.2604 7.07236C13.1499 7.08375 13.0427 7.11712 12.9453 7.17053C12.8479 7.22394 12.7621 7.29629 12.693 7.38334L9.10967 11.6825L7.25551 9.8275C7.09834 9.6757 6.88784 9.59171 6.66934 9.59361C6.45084 9.59551 6.24183 9.68315 6.08733 9.83765C5.93282 9.99216 5.84518 10.2012 5.84328 10.4197C5.84138 10.6382 5.92538 10.8487 6.07717 11.0058L8.57717 13.5058C8.65905 13.5877 8.75709 13.6515 8.86502 13.6934C8.97295 13.7352 9.08842 13.7541 9.20406 13.7489C9.31971 13.7436 9.43299 13.7143 9.53668 13.6629C9.64038 13.6114 9.73221 13.5389 9.80634 13.45L13.973 8.45Z" fill="#399B07"/>
</svg>
