<svg width="28" height="28" viewBox="0 0 28 28" fill="none" xmlns="http://www.w3.org/2000/svg">
<path fill-rule="evenodd" clip-rule="evenodd" d="M27.75 14C27.75 6.40625 21.5938 0.25 14 0.25C6.40625 0.25 0.25 6.40625 0.25 14C0.25 21.5938 6.40625 27.75 14 27.75C21.5938 27.75 27.75 21.5938 27.75 14ZM16.7587 9.88375C16.9864 9.648 17.1124 9.33224 17.1096 9.0045C17.1067 8.67675 16.9753 8.36324 16.7435 8.13148C16.5118 7.89972 16.1982 7.76826 15.8705 7.76541C15.5428 7.76256 15.227 7.88855 14.9913 8.11625L9.99125 13.1163C9.75691 13.3507 9.62527 13.6685 9.62527 14C9.62527 14.3315 9.75691 14.6493 9.99125 14.8837L14.9913 19.8838C15.227 20.1114 15.5428 20.2374 15.8705 20.2346C16.1982 20.2317 16.5118 20.1003 16.7435 19.8685C16.9753 19.6368 17.1067 19.3232 17.1096 18.9955C17.1124 18.6678 16.9864 18.352 16.7587 18.1163L12.6425 14L16.7587 9.88375Z" fill="white"/>
</svg>
