<svg width="16" height="16" viewBox="0 0 16 16" fill="none" xmlns="http://www.w3.org/2000/svg">
<g clip-path="url(#clip0_3382_7465)">
<path d="M0 8.43262C0 8.11973 0 7.80723 0 7.49434C0.0125297 7.38665 0.026234 7.27896 0.0379806 7.17088C0.213788 5.58059 0.787803 4.14968 1.82581 2.9322C3.66376 0.776828 6.01268 -0.203739 8.83773 0.0351371C10.3969 0.166715 11.8033 0.7455 13.0105 1.74447C15.2126 3.56659 16.2013 5.92207 15.9663 8.76939C15.8583 10.0789 15.4158 11.2893 14.6813 12.3803C13.4068 14.2733 11.653 15.4564 9.40039 15.8758C9.10477 15.931 8.80406 15.9596 8.50608 16.0003C8.19323 16.0003 7.88077 16.0003 7.56792 16.0003C7.46025 15.9878 7.35257 15.9741 7.24489 15.9623C5.93358 15.8182 4.7186 15.3988 3.62695 14.6555C1.7291 13.3629 0.545041 11.5928 0.124514 9.32703C0.0693048 9.03098 0.0407214 8.73062 0 8.43262ZM9.34009 7.93959C9.40078 7.8973 9.45364 7.87106 9.49358 7.83112C10.2943 7.03304 11.0935 6.23339 11.8922 5.43335C11.9545 5.37069 12.0156 5.30569 12.0692 5.23559C12.3652 4.85143 12.2994 4.27891 11.9267 3.96915C11.5238 3.63473 11.003 3.67076 10.6056 4.06745C9.79037 4.88041 8.97751 5.69572 8.16308 6.51025C8.12354 6.5498 8.08164 6.587 8.03622 6.62969C7.99472 6.59209 7.95987 6.56194 7.92698 6.52983C7.09963 5.72157 6.27267 4.9133 5.44454 4.10543C5.37758 4.04003 5.30867 3.97581 5.23349 3.9202C4.84742 3.63473 4.28476 3.70482 3.97935 4.07371C3.64457 4.47784 3.68098 4.99515 4.07841 5.39419C4.89088 6.20989 5.70609 7.02325 6.52013 7.83777C6.55968 7.87733 6.59648 7.91923 6.65522 7.98228C6.60353 8.02418 6.55576 8.0559 6.51582 8.09584C5.71588 8.8947 4.91633 9.69396 4.11796 10.4944C4.0557 10.557 3.99501 10.6221 3.94097 10.6922C3.64849 11.0724 3.70839 11.6367 4.07136 11.9484C4.4684 12.2895 4.99347 12.2617 5.39403 11.8717C6.23391 11.054 7.07144 10.2336 7.91014 9.41475C7.95008 9.37598 7.99237 9.33956 8.06363 9.27456C8.10239 9.32899 8.1298 9.38146 8.16974 9.42141C8.97908 10.2332 9.79038 11.0426 10.5993 11.8544C10.8425 12.0984 11.1256 12.23 11.4721 12.1681C11.8276 12.1047 12.0786 11.9002 12.1992 11.5568C12.3316 11.1797 12.2348 10.8484 11.9643 10.5657C11.7661 10.3589 11.5598 10.1596 11.3574 9.95712C10.6984 9.29805 10.039 8.6386 9.34009 7.93959Z" fill="#FF3E57"/>
</g>
<defs>
<clipPath id="clip0_3382_7465">
<rect width="16" height="16" fill="white"/>
</clipPath>
</defs>
</svg>
