<svg width="24" height="24" viewBox="0 0 24 24" fill="none" xmlns="http://www.w3.org/2000/svg">
<path d="M13.1252 0C13.2859 0.0468897 13.4472 0.0906533 13.6066 0.140669C14.917 0.552673 15.8155 1.87746 15.6892 3.21038C15.551 4.66771 14.4788 5.79369 13.0696 5.96061C11.4941 6.14755 10.0274 5.08159 9.75606 3.55236C9.4741 1.96311 10.4463 0.46452 12.0024 0.0819006C12.0799 0.0631447 12.1768 0.0825258 12.2343 0C12.5313 0 12.8283 0 13.1252 0Z" fill="#5EFF8B"/>
<path opacity="0.8" d="M0.00125039 11.3898C0.133167 11.0616 0.210066 10.7109 0.41638 10.4126C1.07534 9.46109 1.99187 9.05909 3.12285 9.20413C4.2382 9.3473 5.09159 10.1482 5.35855 11.2235C5.72366 12.6915 4.66208 14.2176 3.15911 14.4389C1.66552 14.659 0.253829 13.6543 0.0381369 12.2426C0.0350109 12.2226 0.0131291 12.2057 0 12.1869C0.00125039 11.9212 0.00125039 11.6555 0.00125039 11.3898Z" fill="#5EFF8B"/>
<path opacity="0.6" d="M10.0789 23.9988C10.0189 23.9262 9.92764 23.9275 9.84761 23.9062C8.70788 23.6105 7.96827 22.5414 8.06455 21.3242C8.14896 20.2538 9.11426 19.3367 10.2321 19.2066C11.5969 19.0478 12.7529 20.0281 12.9542 21.1941C13.1718 22.4558 12.2577 23.7606 10.9798 23.9519C10.9267 23.96 10.8692 23.9506 10.8285 23.9981C10.5791 23.9988 10.329 23.9988 10.0789 23.9988Z" fill="#5EFF8B"/>
<path opacity="0.3" d="M24.0002 10.7808C23.9264 10.9753 23.8707 11.1791 23.7751 11.3623C23.3456 12.1863 22.5472 12.5902 21.6976 12.5064C20.7516 12.4132 19.9776 11.718 19.842 10.8259C19.6575 9.60797 20.3703 8.68268 21.4919 8.43698C22.6072 8.19253 23.7151 8.94464 23.9526 10.0231C23.9608 10.0587 23.9833 10.0906 23.9995 10.1244C24.0002 10.3432 24.0002 10.562 24.0002 10.7808Z" fill="#5EFF8B"/>
<path opacity="0.9" d="M5.65147 8.30886C4.0741 8.30635 2.80933 7.06347 2.81496 5.52174C2.82059 4.00876 4.11162 2.76337 5.6696 2.769C7.22884 2.77463 8.49361 4.02189 8.48986 5.55112C8.48611 7.08285 7.22196 8.31136 5.65147 8.30886Z" fill="#5EFF8B"/>
<path opacity="0.7" d="M4.73193 15.6043C5.96232 15.5705 7.29273 16.5583 7.28898 18.1613C7.28586 19.6599 6.10361 20.7028 4.74569 20.7146C3.33837 20.7265 2.158 19.5662 2.17051 18.1645C2.18426 16.6065 3.45529 15.5818 4.73193 15.6043Z" fill="#5EFF8B"/>
<path opacity="0.5" d="M16.8674 22.9253C15.6151 22.9816 14.5123 21.8962 14.526 20.6696C14.5404 19.3936 15.5651 18.3745 16.8649 18.3745C18.1371 18.3745 19.2231 19.4155 19.2137 20.6465C19.2043 21.9325 18.1334 22.9778 16.8674 22.9253Z" fill="#5EFF8B"/>
<path opacity="0.4" d="M21.1896 18.4239C20.0555 18.4958 18.9683 17.4442 18.9796 16.2182C18.9908 14.9853 20.003 14.0063 21.2009 14.01C22.4375 14.0138 23.4272 14.9747 23.4203 16.2395C23.4135 17.4667 22.4407 18.4658 21.1896 18.4239Z" fill="#5EFF8B"/>
<path opacity="0.2" d="M19.152 7.21851C18.2617 7.29041 17.3127 6.43889 17.3389 5.37418C17.3633 4.40013 18.1854 3.55924 19.167 3.56362C20.1886 3.56799 21.0151 4.44139 21.0069 5.43608C21.0001 6.34574 20.1635 7.30479 19.152 7.21851Z" fill="#5EFF8B"/>
</svg>
