<svg width="24" height="24" viewBox="0 0 24 24" fill="none" xmlns="http://www.w3.org/2000/svg">
<circle r="12" transform="matrix(1 0 0 -1 12 12)" fill="black"/>
<g clip-path="url(#clip0_3486_6995)">
<path d="M13.8668 14.0125C13.8668 15.1408 13.8668 16.2691 13.8668 17.3974C13.8668 17.6616 13.7901 17.738 13.525 17.738C12.5003 17.7384 11.4752 17.7384 10.4505 17.738C10.1854 17.738 10.1125 17.6635 10.1125 17.3942C10.1125 15.1296 10.1115 12.865 10.1157 10.6C10.116 10.4823 10.0853 10.4596 9.97305 10.4606C9.2752 10.4663 8.57736 10.4634 7.87951 10.4634C7.82354 10.4634 7.76789 10.465 7.71385 10.4462C7.53922 10.386 7.48166 10.1807 7.60095 10.0406C7.62142 10.0163 7.64508 9.99491 7.66779 9.9722C9.03246 8.60754 10.3971 7.24319 11.7618 5.87852C11.9486 5.69175 12.056 5.69143 12.2431 5.8782C13.6078 7.24255 14.9725 8.60754 16.3378 9.97156C16.4196 10.0531 16.4964 10.1331 16.4459 10.262C16.3848 10.4174 16.3157 10.4628 16.1334 10.4628C15.4157 10.4634 14.6977 10.465 13.9801 10.4606C13.8831 10.4599 13.8652 10.4887 13.8652 10.5789C13.8678 11.7238 13.8668 12.8682 13.8668 14.0125Z" fill="white"/>
</g>
<defs>
<clipPath id="clip0_3486_6995">
<rect width="12" height="12" fill="white" transform="translate(6 18) rotate(-90)"/>
</clipPath>
</defs>
</svg>
