<svg width="30" height="48" viewBox="0 0 30 48" fill="none" xmlns="http://www.w3.org/2000/svg">
<rect x="0.5" y="0.5" width="29" height="47" rx="14.5" stroke="white"/>
<line x1="15.5" y1="12.5" x2="15.5" y2="35.5" stroke="white" stroke-linecap="round"/>
<path fill-rule="evenodd" clip-rule="evenodd" d="M11.1095 31.8122C10.937 31.5965 10.9721 31.2819 11.1878 31.1095C11.4035 30.937 11.7182 30.9721 11.8906 31.1878L15.4496 35.6403L19.0086 31.1878C19.181 30.9721 19.4956 30.937 19.7113 31.1095C19.9271 31.2819 19.9621 31.5965 19.7897 31.8122L15.8469 36.7448C15.8336 36.7623 15.819 36.779 15.8031 36.7948C15.7616 36.8364 15.7141 36.8693 15.6632 36.8933C15.5268 36.9579 15.3694 36.9563 15.236 36.8933C15.185 36.8693 15.1376 36.8364 15.0961 36.7948C15.0802 36.779 15.0656 36.7623 15.0522 36.7448L11.1095 31.8122Z" fill="white"/>
</svg>
