<svg width="24" height="24" viewBox="0 0 24 24" fill="none" xmlns="http://www.w3.org/2000/svg">
<circle cx="12" cy="12" r="12" fill="black"/>
<g clip-path="url(#clip0_3486_7005)">
<path d="M13.8668 9.98753C13.8668 8.85921 13.8668 7.73089 13.8668 6.60256C13.8668 6.33839 13.7901 6.26196 13.525 6.26196C12.5003 6.26164 11.4752 6.26164 10.4505 6.26196C10.1854 6.26196 10.1125 6.33648 10.1125 6.60576C10.1125 8.8704 10.1115 11.135 10.1157 13.4C10.116 13.5177 10.0853 13.5404 9.97305 13.5394C9.2752 13.5337 8.57736 13.5366 7.87951 13.5366C7.82354 13.5366 7.76789 13.535 7.71385 13.5538C7.53922 13.614 7.48166 13.8193 7.60095 13.9594C7.62142 13.9837 7.64508 14.0051 7.66779 14.0278C9.03246 15.3925 10.3971 16.7568 11.7618 18.1215C11.9486 18.3083 12.056 18.3086 12.2431 18.1218C13.6078 16.7575 14.9725 15.3925 16.3378 14.0284C16.4196 13.9469 16.4964 13.8669 16.4459 13.738C16.3848 13.5826 16.3157 13.5372 16.1334 13.5372C15.4157 13.5366 14.6977 13.535 13.9801 13.5394C13.8831 13.5401 13.8652 13.5113 13.8652 13.4211C13.8678 12.2762 13.8668 11.1318 13.8668 9.98753Z" fill="white"/>
</g>
<defs>
<clipPath id="clip0_3486_7005">
<rect width="12" height="12" fill="white" transform="matrix(0 1 1 0 6 6)"/>
</clipPath>
</defs>
</svg>
