<svg width="1240" height="500" viewBox="0 0 1240 500" fill="none" xmlns="http://www.w3.org/2000/svg">
<rect width="1240" height="500" rx="32" fill="url(#paint0_linear_4_60)"/>
<mask id="mask0_4_60" style="mask-type:alpha" maskUnits="userSpaceOnUse" x="0" y="0" width="1240" height="500">
<rect width="1240" height="500" rx="32" fill="url(#paint1_linear_4_60)"/>
</mask>
<g mask="url(#mask0_4_60)">
<g filter="url(#filter0_f_4_60)">
<path d="M-47.2809 622.492L1303.74 576.861C1313.77 576.522 1322.24 568.877 1323.56 558.964L1362.01 270.506C1363.97 255.78 1349.76 244.558 1335.59 249.596C1239.89 283.623 1064.1 340.718 935.914 363.818C756.523 396.146 507.613 271.583 383.175 238.052C288.109 212.435 89.0297 250.201 -10.8863 275.16C-19.0393 277.196 -25.069 284.056 -26.1681 292.303L-67.2489 600.558C-68.8499 612.571 -59.4443 622.903 -47.2809 622.492Z" fill="url(#paint2_linear_4_60)"/>
</g>
</g>
<defs>
<filter id="filter0_f_4_60" x="-147.427" y="149.504" width="1589.62" height="553" filterUnits="userSpaceOnUse" color-interpolation-filters="sRGB">
<feFlood flood-opacity="0" result="BackgroundImageFix"/>
<feBlend mode="normal" in="SourceGraphic" in2="BackgroundImageFix" result="shape"/>
<feGaussianBlur stdDeviation="40" result="effect1_foregroundBlur_4_60"/>
</filter>
<linearGradient id="paint0_linear_4_60" x1="22.2812" y1="494.231" x2="516.926" y2="185.425" gradientUnits="userSpaceOnUse">
<stop stop-color="#FF79FF"/>
<stop offset="1" stop-color="#180F0E"/>
</linearGradient>
<linearGradient id="paint1_linear_4_60" x1="-1.94654e-06" y1="180.369" x2="1191.03" y2="-43.1244" gradientUnits="userSpaceOnUse">
<stop stop-color="#DE2779"/>
<stop offset="0.578125" stop-color="#B839D0"/>
<stop offset="1" stop-color="#92A9FA"/>
</linearGradient>
<linearGradient id="paint2_linear_4_60" x1="1299.87" y1="390.286" x2="-101.396" y2="539.441" gradientUnits="userSpaceOnUse">
<stop offset="0.0129279" stop-color="#E37777"/>
<stop offset="0.380614" stop-color="#F2554C"/>
<stop offset="0.61473" stop-color="#FEC458"/>
<stop offset="0.842802" stop-color="#FEC957"/>
<stop offset="1" stop-color="#DB788D"/>
</linearGradient>
</defs>
</svg>
