<svg width="335" height="947" viewBox="0 0 335 947" fill="none" xmlns="http://www.w3.org/2000/svg">
<rect width="335" height="947" rx="28" fill="url(#paint0_linear_106_133)"/>
<mask id="mask0_106_133" style="mask-type:alpha" maskUnits="userSpaceOnUse" x="0" y="0" width="335" height="947">
<rect width="335" height="947" rx="28" fill="url(#paint1_linear_106_133)"/>
</mask>
<g mask="url(#mask0_106_133)">
<g filter="url(#filter0_f_106_133)">
<path d="M-793.588 1005.35L1072.54 942.32C1082.57 941.981 1091.04 934.337 1092.36 924.423L1147.47 510.924C1149.43 496.197 1135.26 484.974 1121.1 490.055C992.954 536.058 742.925 618.042 562.069 650.634C316.273 694.929 -24.7762 524.257 -195.278 478.313C-327.121 442.786 -604.967 496.232 -740.146 530.398C-748.294 532.457 -754.373 539.326 -755.472 547.573L-813.556 983.416C-815.157 995.429 -805.752 1005.76 -793.588 1005.35Z" fill="url(#paint2_linear_106_133)"/>
</g>
</g>
<defs>
<filter id="filter0_f_106_133" x="-893.734" y="386.601" width="2121.39" height="698.761" filterUnits="userSpaceOnUse" color-interpolation-filters="sRGB">
<feFlood flood-opacity="0" result="BackgroundImageFix"/>
<feBlend mode="normal" in="SourceGraphic" in2="BackgroundImageFix" result="shape"/>
<feGaussianBlur stdDeviation="40" result="effect1_foregroundBlur_106_133"/>
</filter>
<linearGradient id="paint0_linear_106_133" x1="6.01953" y1="936.073" x2="190.276" y2="919.665" gradientUnits="userSpaceOnUse">
<stop stop-color="#FF79FF"/>
<stop offset="1" stop-color="#180F0E"/>
</linearGradient>
<linearGradient id="paint1_linear_106_133" x1="-5.2588e-07" y1="341.619" x2="332.862" y2="332.71" gradientUnits="userSpaceOnUse">
<stop stop-color="#DE2779"/>
<stop offset="0.578125" stop-color="#B839D0"/>
<stop offset="1" stop-color="#92A9FA"/>
</linearGradient>
<linearGradient id="paint2_linear_106_133" x1="1060.75" y1="686.9" x2="-859.223" y2="891.267" gradientUnits="userSpaceOnUse">
<stop offset="0.0129279" stop-color="#E37777"/>
<stop offset="0.380614" stop-color="#F2554C"/>
<stop offset="0.61473" stop-color="#FEC458"/>
<stop offset="0.842802" stop-color="#FEC957"/>
<stop offset="1" stop-color="#DB788D"/>
</linearGradient>
</defs>
</svg>
