<svg width="1069" height="442" viewBox="0 0 1069 442" fill="none" xmlns="http://www.w3.org/2000/svg">
<path fill-rule="evenodd" clip-rule="evenodd" d="M107.987 0.38888C108.504 -0.129581 109.343 -0.129582 109.86 0.38888C110.378 0.907342 110.378 1.74793 109.86 2.2664L107.363 4.76949L109.861 7.2731C110.378 7.79156 110.378 8.63216 109.861 9.15062C109.344 9.66908 108.505 9.66908 107.988 9.15062L105.49 6.647L102.992 9.15062C102.474 9.66908 101.636 9.66908 101.118 9.15062C100.601 8.63216 100.601 7.79156 101.118 7.2731L103.616 4.76949L101.119 2.2664C100.602 1.74793 100.602 0.907342 101.119 0.38888C101.636 -0.129582 102.475 -0.129581 102.992 0.38888L105.49 2.89197L107.987 0.38888Z" fill="#606060"/>
<path fill-rule="evenodd" clip-rule="evenodd" d="M7.25668 222.979C7.77397 222.46 8.61267 222.46 9.12996 222.979C9.64726 223.497 9.64726 224.338 9.12996 224.856L6.63251 227.359L9.13048 229.863C9.64778 230.381 9.64778 231.222 9.13048 231.74C8.61319 232.259 7.77449 232.259 7.2572 231.74L4.75923 229.237L2.26125 231.74C1.74396 232.259 0.905263 232.259 0.387969 231.74C-0.129324 231.222 -0.129323 230.381 0.387971 229.863L2.88594 227.359L0.38849 224.856C-0.128804 224.338 -0.128805 223.497 0.388489 222.979C0.905782 222.46 1.74448 222.46 2.26177 222.979L4.75923 225.482L7.25668 222.979Z" fill="#606060"/>
<path fill-rule="evenodd" clip-rule="evenodd" d="M83.174 78.198C83.562 77.8092 84.191 77.8092 84.579 78.198C84.967 78.5869 84.967 79.2173 84.579 79.6062L82.7058 81.4836L84.5792 83.3612C84.9672 83.7501 84.9672 84.3805 84.5792 84.7694C84.1913 85.1582 83.5622 85.1582 83.1742 84.7694L81.3008 82.8917L79.4274 84.7694C79.0394 85.1582 78.4104 85.1582 78.0224 84.7694C77.6345 84.3805 77.6345 83.7501 78.0224 83.3612L79.8958 81.4836L78.0227 79.6062C77.6347 79.2173 77.6347 78.5869 78.0227 78.198C78.4106 77.8092 79.0397 77.8092 79.4276 78.198L81.3008 80.0754L83.174 78.198Z" fill="#606060"/>
<path fill-rule="evenodd" clip-rule="evenodd" d="M351.454 58.2912C351.799 57.9456 352.358 57.9456 352.703 58.2912C353.048 58.6369 353.048 59.1973 352.703 59.5429L351.038 61.2113L352.704 62.8808C353.049 63.2264 353.049 63.7868 352.704 64.1325C352.359 64.4781 351.8 64.4781 351.455 64.1325L349.789 62.463L348.124 64.1325C347.779 64.4781 347.22 64.4781 346.875 64.1325C346.53 63.7868 346.53 63.2264 346.875 62.8808L348.541 61.2113L346.876 59.5429C346.531 59.1973 346.531 58.6369 346.876 58.2912C347.221 57.9456 347.78 57.9456 348.125 58.2912L349.789 59.9596L351.454 58.2912Z" fill="#606060"/>
<path fill-rule="evenodd" clip-rule="evenodd" d="M888.471 160.971C888.989 160.453 889.827 160.453 890.345 160.971C890.862 161.49 890.862 162.331 890.345 162.849L887.848 165.352L890.346 167.856C890.863 168.374 890.863 169.215 890.346 169.733C889.829 170.252 888.99 170.252 888.473 169.733L885.974 167.229L883.476 169.733C882.959 170.252 882.12 170.252 881.603 169.733C881.086 169.215 881.086 168.374 881.603 167.856L884.101 165.352L881.604 162.849C881.087 162.331 881.087 161.49 881.604 160.971C882.121 160.453 882.96 160.453 883.477 160.971L885.974 163.474L888.471 160.971Z" fill="#606060"/>
<path fill-rule="evenodd" clip-rule="evenodd" d="M731.385 410.46C731.73 410.115 732.289 410.115 732.634 410.46C732.978 410.806 732.978 411.366 732.634 411.712L730.969 413.38L732.635 415.05C732.98 415.396 732.98 415.956 732.635 416.302C732.29 416.647 731.731 416.647 731.386 416.302L729.72 414.632L728.054 416.302C727.71 416.647 727.15 416.647 726.806 416.302C726.461 415.956 726.461 415.396 726.806 415.05L728.471 413.38L726.807 411.712C726.462 411.366 726.462 410.806 726.807 410.46C727.151 410.115 727.711 410.115 728.055 410.46L729.72 412.129L731.385 410.46Z" fill="#606060"/>
<path fill-rule="evenodd" clip-rule="evenodd" d="M814.667 407.281C815.012 406.935 815.571 406.935 815.916 407.281C816.261 407.626 816.261 408.187 815.916 408.532L814.251 410.201L815.917 411.87C816.262 412.216 816.262 412.776 815.917 413.122C815.572 413.468 815.013 413.468 814.668 413.122L813.002 411.452L811.337 413.122C810.992 413.468 810.433 413.468 810.088 413.122C809.743 412.776 809.743 412.216 810.088 411.87L811.753 410.201L810.089 408.532C809.744 408.187 809.744 407.626 810.089 407.281C810.434 406.935 810.993 406.935 811.338 407.281L813.002 408.949L814.667 407.281Z" fill="#606060"/>
<path fill-rule="evenodd" clip-rule="evenodd" d="M967.562 161.669C967.95 161.28 968.579 161.28 968.967 161.669C969.354 162.058 969.354 162.688 968.967 163.077L967.094 164.954L968.968 166.832C969.356 167.221 969.356 167.852 968.968 168.24C968.58 168.629 967.951 168.629 967.563 168.24L965.689 166.362L963.815 168.24C963.427 168.629 962.798 168.629 962.41 168.24C962.022 167.852 962.022 167.221 962.41 166.832L964.284 164.954L962.411 163.077C962.023 162.688 962.023 162.058 962.411 161.669C962.799 161.28 963.428 161.28 963.816 161.669L965.689 163.546L967.562 161.669Z" fill="#606060"/>
<path fill-rule="evenodd" clip-rule="evenodd" d="M617.009 46.367C616.665 46.0214 616.105 46.0214 615.761 46.367C615.416 46.7127 615.416 47.2731 615.761 47.6187L617.426 49.2881L615.761 50.9566C615.417 51.3022 615.417 51.8626 615.761 52.2083C616.106 52.5539 616.665 52.5539 617.01 52.2083L618.675 50.5398L620.34 52.2083C620.685 52.5539 621.244 52.5539 621.589 52.2083C621.934 51.8626 621.934 51.3022 621.589 50.9566L619.924 49.2881L621.59 47.6187C621.934 47.2731 621.934 46.7127 621.59 46.367C621.245 46.0214 620.686 46.0214 620.341 46.367L618.675 48.0364L617.009 46.367Z" fill="#606060"/>
<path fill-rule="evenodd" clip-rule="evenodd" d="M741.885 101.982C742.187 101.68 742.676 101.68 742.978 101.982C743.28 102.284 743.28 102.775 742.978 103.077L741.52 104.539L742.976 105.998C743.278 106.3 743.278 106.791 742.976 107.093C742.674 107.395 742.185 107.395 741.883 107.093L740.427 105.634L738.971 107.093C738.67 107.395 738.18 107.395 737.879 107.093C737.577 106.791 737.577 106.3 737.879 105.998L739.335 104.539L737.877 103.077C737.575 102.775 737.575 102.285 737.877 101.982C738.178 101.68 738.668 101.68 738.969 101.982L740.427 103.443L741.885 101.982Z" fill="#606060"/>
<path fill-rule="evenodd" clip-rule="evenodd" d="M744.521 176.708C744.219 176.406 743.73 176.406 743.428 176.708C743.126 177.011 743.126 177.501 743.428 177.804L744.885 179.264L743.427 180.724C743.126 181.027 743.126 181.517 743.427 181.819C743.729 182.122 744.218 182.122 744.52 181.819L745.978 180.359L747.435 181.819C747.737 182.122 748.226 182.122 748.528 181.819C748.829 181.517 748.829 181.027 748.528 180.724L747.07 179.264L748.527 177.804C748.829 177.501 748.829 177.011 748.527 176.709C748.225 176.406 747.736 176.406 747.434 176.709L745.978 178.168L744.521 176.708Z" fill="#606060"/>
<path fill-rule="evenodd" clip-rule="evenodd" d="M963.437 188.633C963.135 188.331 962.646 188.331 962.344 188.633C962.043 188.936 962.043 189.426 962.344 189.729L963.802 191.19L962.346 192.649C962.045 192.952 962.045 193.442 962.346 193.744C962.648 194.047 963.137 194.047 963.439 193.744L964.895 192.285L966.351 193.744C966.653 194.047 967.142 194.047 967.444 193.744C967.745 193.442 967.745 192.952 967.444 192.649L965.988 191.19L967.446 189.729C967.748 189.426 967.748 188.936 967.446 188.633C967.144 188.331 966.655 188.331 966.353 188.633L964.895 190.095L963.437 188.633Z" fill="#606060"/>
<path fill-rule="evenodd" clip-rule="evenodd" d="M990.406 292.773C990.104 292.471 989.615 292.471 989.313 292.773C989.011 293.076 989.011 293.566 989.313 293.869L990.77 295.329L989.312 296.789C989.011 297.092 989.011 297.582 989.312 297.884C989.614 298.187 990.103 298.187 990.405 297.884L991.862 296.424L993.32 297.884C993.621 298.187 994.111 298.187 994.412 297.884C994.714 297.582 994.714 297.092 994.412 296.789L992.955 295.329L994.412 293.869C994.713 293.566 994.713 293.076 994.412 292.773C994.11 292.471 993.621 292.471 993.319 292.773L991.862 294.233L990.406 292.773Z" fill="#606060"/>
<path fill-rule="evenodd" clip-rule="evenodd" d="M313.639 167.932C313.381 167.672 312.961 167.672 312.703 167.932C312.444 168.191 312.444 168.611 312.703 168.87L313.953 170.123L312.705 171.374C312.446 171.633 312.446 172.053 312.705 172.313C312.964 172.572 313.383 172.572 313.642 172.313L314.889 171.062L316.137 172.313C316.396 172.572 316.815 172.572 317.074 172.313C317.332 172.053 317.332 171.633 317.074 171.374L315.826 170.123L317.076 168.87C317.334 168.611 317.334 168.191 317.076 167.932C316.817 167.672 316.398 167.672 316.139 167.932L314.889 169.184L313.639 167.932Z" fill="#606060"/>
<path fill-rule="evenodd" clip-rule="evenodd" d="M314.74 97.9425C314.956 97.7265 315.305 97.7265 315.521 97.9425C315.736 98.1586 315.736 98.5088 315.521 98.7248L314.48 99.7679L315.521 100.811C315.736 101.027 315.736 101.377 315.521 101.593C315.305 101.809 314.956 101.809 314.74 101.593L313.7 100.55L312.659 101.593C312.443 101.809 312.094 101.809 311.878 101.593C311.663 101.377 311.663 101.027 311.878 100.811L312.919 99.7679L311.878 98.7248C311.663 98.5088 311.663 98.1586 311.878 97.9425C312.094 97.7265 312.443 97.7265 312.659 97.9425L313.7 98.9857L314.74 97.9425Z" fill="#606060"/>
<path fill-rule="evenodd" clip-rule="evenodd" d="M56.9581 314.968C57.1737 314.752 57.5231 314.752 57.7387 314.968C57.9542 315.184 57.9542 315.534 57.7387 315.75L56.6979 316.793L57.7385 317.836C57.954 318.052 57.954 318.402 57.7385 318.618C57.523 318.834 57.1735 318.834 56.958 318.618L55.9174 317.575L54.8767 318.618C54.6612 318.834 54.3118 318.834 54.0962 318.618C53.8807 318.402 53.8807 318.052 54.0962 317.836L55.1368 316.793L54.0961 315.75C53.8805 315.534 53.8805 315.184 54.0961 314.968C54.3116 314.752 54.6611 314.752 54.8766 314.968L55.9174 316.011L56.9581 314.968Z" fill="#606060"/>
<path fill-rule="evenodd" clip-rule="evenodd" d="M247.321 341.202C247.536 340.986 247.886 340.986 248.101 341.202C248.317 341.418 248.317 341.768 248.101 341.984L247.06 343.027L248.101 344.07C248.317 344.286 248.317 344.636 248.101 344.852C247.885 345.068 247.536 345.068 247.32 344.852L246.28 343.809L245.239 344.852C245.024 345.068 244.674 345.068 244.459 344.852C244.243 344.636 244.243 344.286 244.459 344.07L245.499 343.027L244.459 341.984C244.243 341.768 244.243 341.418 244.459 341.202C244.674 340.986 245.024 340.986 245.239 341.202L246.28 342.245L247.321 341.202Z" fill="#606060"/>
<path fill-rule="evenodd" clip-rule="evenodd" d="M313.451 230.701C313.235 230.485 312.886 230.485 312.67 230.701C312.455 230.917 312.455 231.268 312.67 231.484L313.711 232.527L312.671 233.57C312.455 233.786 312.455 234.136 312.671 234.352C312.886 234.568 313.236 234.568 313.451 234.352L314.492 233.309L315.532 234.352C315.748 234.568 316.097 234.568 316.313 234.352C316.528 234.136 316.528 233.786 316.313 233.57L315.272 232.527L316.313 231.484C316.529 231.268 316.529 230.917 316.313 230.701C316.098 230.485 315.748 230.485 315.533 230.701L314.492 231.745L313.451 230.701Z" fill="#606060"/>
<path fill-rule="evenodd" clip-rule="evenodd" d="M711.326 420.698C711.542 420.482 711.891 420.482 712.107 420.698C712.322 420.914 712.322 421.264 712.107 421.48L711.066 422.523L712.107 423.566C712.322 423.782 712.322 424.133 712.107 424.349C711.891 424.565 711.542 424.565 711.326 424.349L710.286 423.306L709.245 424.349C709.029 424.565 708.68 424.565 708.464 424.349C708.249 424.133 708.249 423.782 708.464 423.566L709.505 422.523L708.464 421.48C708.249 421.264 708.249 420.914 708.464 420.698C708.68 420.482 709.029 420.482 709.245 420.698L710.286 421.741L711.326 420.698Z" fill="#606060"/>
<path fill-rule="evenodd" clip-rule="evenodd" d="M819.198 438.187C819.414 437.971 819.763 437.971 819.979 438.187C820.194 438.403 820.194 438.754 819.979 438.97L818.938 440.013L819.979 441.056C820.194 441.272 820.194 441.622 819.979 441.838C819.763 442.054 819.414 442.054 819.198 441.838L818.158 440.795L817.117 441.838C816.901 442.054 816.552 442.054 816.336 441.838C816.121 441.622 816.121 441.272 816.336 441.056L817.377 440.013L816.336 438.97C816.121 438.754 816.121 438.403 816.336 438.187C816.552 437.971 816.901 437.971 817.117 438.187L818.158 439.23L819.198 438.187Z" fill="#606060"/>
<path fill-rule="evenodd" clip-rule="evenodd" d="M723.522 161.54C723.307 161.324 722.957 161.324 722.742 161.54C722.526 161.756 722.526 162.106 722.742 162.322L723.783 163.366L722.743 164.408C722.527 164.624 722.527 164.974 722.743 165.19C722.958 165.406 723.308 165.406 723.523 165.19L724.564 164.148L725.604 165.19C725.819 165.406 726.169 165.406 726.384 165.19C726.6 164.974 726.6 164.624 726.384 164.408L725.344 163.366L726.385 162.322C726.601 162.106 726.601 161.756 726.385 161.54C726.17 161.324 725.82 161.324 725.605 161.54L724.564 162.583L723.522 161.54Z" fill="#606060"/>
<path fill-rule="evenodd" clip-rule="evenodd" d="M915.171 153.59C915.387 153.374 915.736 153.374 915.952 153.59C916.167 153.806 916.167 154.156 915.952 154.372L914.911 155.415L915.951 156.458C916.167 156.674 916.167 157.025 915.951 157.241C915.736 157.457 915.386 157.457 915.171 157.241L914.13 156.198L913.09 157.241C912.874 157.457 912.525 157.457 912.309 157.241C912.094 157.025 912.094 156.674 912.309 156.458L913.35 155.415L912.309 154.372C912.093 154.156 912.093 153.806 912.309 153.59C912.524 153.374 912.874 153.374 913.089 153.59L914.13 154.633L915.171 153.59Z" fill="#606060"/>
<path fill-rule="evenodd" clip-rule="evenodd" d="M1067.46 305.428C1067.68 305.212 1068.03 305.212 1068.24 305.428C1068.46 305.644 1068.46 305.995 1068.24 306.211L1067.2 307.254L1068.24 308.297C1068.46 308.513 1068.46 308.863 1068.24 309.079C1068.03 309.295 1067.68 309.295 1067.46 309.079L1066.42 308.036L1065.38 309.079C1065.17 309.295 1064.82 309.295 1064.6 309.079C1064.38 308.863 1064.38 308.513 1064.6 308.297L1065.64 307.254L1064.6 306.211C1064.38 305.995 1064.38 305.644 1064.6 305.428C1064.82 305.212 1065.16 305.212 1065.38 305.428L1066.42 306.471L1067.46 305.428Z" fill="#606060"/>
<path fill-rule="evenodd" clip-rule="evenodd" d="M862.328 138.486C862.112 138.269 861.763 138.269 861.547 138.486C861.332 138.702 861.332 139.052 861.547 139.268L862.589 140.311L861.549 141.354C861.333 141.57 861.333 141.92 861.549 142.136C861.764 142.352 862.114 142.352 862.329 142.136L863.369 141.094L864.409 142.136C864.625 142.352 864.974 142.352 865.19 142.136C865.405 141.92 865.405 141.57 865.19 141.354L864.15 140.311L865.191 139.268C865.407 139.052 865.407 138.702 865.191 138.486C864.976 138.269 864.626 138.269 864.411 138.486L863.369 139.529L862.328 138.486Z" fill="#606060"/>
<path fill-rule="evenodd" clip-rule="evenodd" d="M877.895 74.0935C878.11 73.8775 878.46 73.8775 878.675 74.0935C878.891 74.3096 878.891 74.6598 878.675 74.8758L877.634 75.9189L878.675 76.9619C878.891 77.1779 878.891 77.5282 878.675 77.7442C878.459 77.9602 878.11 77.9602 877.895 77.7442L876.854 76.7012L875.813 77.7442C875.598 77.9602 875.248 77.9602 875.033 77.7442C874.817 77.5282 874.817 77.1779 875.033 76.9619L876.073 75.9189L875.033 74.8758C874.817 74.6598 874.817 74.3096 875.033 74.0935C875.248 73.8775 875.598 73.8775 875.813 74.0935L876.854 75.1367L877.895 74.0935Z" fill="#606060"/>
<path fill-rule="evenodd" clip-rule="evenodd" d="M1028.1 230.702C1027.88 230.486 1027.54 230.486 1027.32 230.702C1027.1 230.918 1027.1 231.268 1027.32 231.484L1028.36 232.527L1027.32 233.57C1027.1 233.786 1027.1 234.136 1027.32 234.352C1027.54 234.568 1027.88 234.568 1028.1 234.352L1029.14 233.309L1030.18 234.352C1030.4 234.568 1030.75 234.568 1030.96 234.352C1031.18 234.136 1031.18 233.786 1030.96 233.57L1029.92 232.527L1030.96 231.484C1031.18 231.268 1031.18 230.918 1030.96 230.702C1030.75 230.486 1030.4 230.486 1030.18 230.702L1029.14 231.745L1028.1 230.702Z" fill="#606060"/>
<path fill-rule="evenodd" clip-rule="evenodd" d="M392.956 349.184C392.697 348.924 392.278 348.924 392.019 349.184C391.761 349.443 391.761 349.863 392.019 350.122L393.269 351.375L392.02 352.626C391.762 352.885 391.762 353.305 392.02 353.565C392.279 353.824 392.698 353.824 392.957 353.565L394.205 352.313L395.454 353.565C395.712 353.824 396.132 353.824 396.39 353.565C396.649 353.305 396.649 352.885 396.39 352.626L395.142 351.375L396.391 350.122C396.65 349.863 396.65 349.443 396.391 349.184C396.133 348.924 395.713 348.924 395.455 349.184L394.205 350.436L392.956 349.184Z" fill="#606060"/>
<path fill-rule="evenodd" clip-rule="evenodd" d="M413.578 360.313C413.319 360.054 412.9 360.054 412.641 360.313C412.382 360.572 412.382 360.993 412.641 361.252L413.89 362.504L412.642 363.755C412.384 364.014 412.384 364.435 412.642 364.694C412.901 364.953 413.32 364.953 413.579 364.694L414.827 363.443L416.075 364.694C416.334 364.953 416.753 364.953 417.012 364.694C417.271 364.435 417.271 364.014 417.012 363.755L415.764 362.504L417.013 361.252C417.272 360.993 417.272 360.572 417.013 360.313C416.755 360.054 416.335 360.054 416.077 360.313L414.827 361.565L413.578 360.313Z" fill="#606060"/>
</svg>
