<svg width="480" height="680" viewBox="0 0 480 680" fill="none" xmlns="http://www.w3.org/2000/svg">
<rect width="480" height="680" fill="#3A0013"/>
<mask id="mask0_14_2" style="mask-type:alpha" maskUnits="userSpaceOnUse" x="0" y="0" width="480" height="258">
<rect width="480" height="258" fill="#3A0013"/>
</mask>
<g mask="url(#mask0_14_2)">
<path d="M660 241.044V-135.001C498.878 -104.624 -181.613 -102.086 -342 -132.329V241.044C-316.215 213.807 -283.884 183.938 -244.726 155.312C-152.341 87.7329 -21.9479 27.1404 149.888 24.7493C152.921 24.7226 155.941 24.6692 159 24.6692C335.352 25.0031 468.711 86.544 562.726 155.312C601.884 183.938 634.215 213.807 660 241.044Z" fill="#4F0322"/>
<path d="M35.3398 35.5966C-109.603 61.2309 -217.832 128.542 -292.341 193.543C-310.991 209.787 -327.531 225.91 -342 241.192V359.865C-318.112 320.058 -288.587 276.671 -253.223 234.593C-181.6 149.328 -85.9957 69.4461 35.3398 35.5966Z" fill="#910D4F"/>
<path d="M282.658 35.5966C427.601 61.2309 535.83 128.542 610.339 193.543C628.99 209.787 645.529 225.91 659.998 241.192V359.865C636.11 320.058 606.585 276.671 571.221 234.593C499.598 149.328 403.994 69.4461 282.658 35.5966Z" fill="white"/>
<path opacity="0.3" d="M149.889 24.7363C-183.965 27.969 -342 206.968 -342 206.968V241.045C-316.215 213.807 -283.884 183.939 -244.726 155.312C-152.341 87.7333 -21.9478 27.1274 149.889 24.7363Z" fill="#606060"/>
<path opacity="0.3" d="M168.112 24.7363C501.965 27.969 660 206.968 660 206.968V241.045C634.215 213.807 601.884 183.939 562.726 155.312C470.341 87.7333 339.948 27.1274 168.112 24.7363Z" fill="#606060"/>
<path d="M659.999 13.0613V0.0371021L371.824 6.55588L659.999 13.0613Z" fill="#65042D"/>
</g>
</svg>
