<svg width="480" height="680" viewBox="0 0 480 680" fill="none" xmlns="http://www.w3.org/2000/svg">
<rect width="480" height="680" fill="#3A0013"/>
<mask id="mask0_14_3" style="mask-type:alpha" maskUnits="userSpaceOnUse" x="0" y="422" width="480" height="258">
<rect width="480" height="258" transform="matrix(1 0 0 -1 0 680)" fill="#3A0013"/>
</mask>
<g mask="url(#mask0_14_3)">
<path d="M-152 438.956V815.001C9.12162 784.624 689.613 782.086 850 812.329V438.956C824.215 466.193 791.884 496.062 752.726 524.688C660.341 592.267 529.948 652.86 358.112 655.251C355.079 655.277 352.059 655.331 349 655.331C172.648 654.997 39.2885 593.456 -54.7258 524.688C-93.884 496.062 -126.215 466.193 -152 438.956Z" fill="#4F0322"/>
<path d="M472.66 644.403C617.603 618.769 725.832 551.458 800.341 486.457C818.991 470.213 835.531 454.09 850 438.808V320.135C826.112 359.942 796.587 403.329 761.223 445.407C689.6 530.672 593.996 610.554 472.66 644.403Z" fill="#910D4F"/>
<path d="M225.342 644.403C80.3992 618.769 -27.8302 551.458 -102.339 486.457C-120.99 470.213 -137.529 454.09 -151.998 438.808V320.135C-128.11 359.942 -98.5847 403.329 -63.2208 445.407C8.40214 530.672 104.006 610.554 225.342 644.403Z" fill="white"/>
<path opacity="0.3" d="M358.111 655.264C691.965 652.031 850 473.032 850 473.032V438.955C824.215 466.193 791.884 496.061 752.726 524.688C660.341 592.267 529.948 652.873 358.111 655.264Z" fill="#606060"/>
<path opacity="0.3" d="M339.888 655.264C6.03537 652.031 -152 473.032 -152 473.032V438.955C-126.215 466.193 -93.8841 496.061 -54.7259 524.688C37.6585 592.267 168.052 652.873 339.888 655.264Z" fill="#606060"/>
<path d="M-151.999 666.939V679.963L136.176 673.444L-151.999 666.939Z" fill="#65042D"/>
</g>
</svg>
