<svg width="40" height="40" viewBox="0 0 40 40" fill="none" xmlns="http://www.w3.org/2000/svg">
<circle cx="20" cy="20" r="20" fill="#04A9F3"/>
<path d="M16.5882 24.5565C17.0351 25.7079 17.461 26.8075 17.8895 27.9054C18.1161 28.4875 18.3528 29.0647 18.5766 29.6475C18.7698 30.1504 18.595 30.6073 18.0861 30.759C17.0609 31.0644 16.0249 31.3379 14.9853 31.5898C14.547 31.695 14.2358 31.4708 14.0525 31.0504C13.3581 29.4179 12.6593 27.7869 11.9561 26.1575C11.7834 25.7537 11.6049 25.3515 11.4317 24.9653C10.8915 25.065 10.3957 25.208 9.89354 25.2391C8.77351 25.3096 7.99502 24.7227 7.70327 23.6568C7.46474 22.7844 7.23058 21.9105 7.00081 21.0351C6.63974 19.6608 7.3112 18.4404 8.67377 18.0241C9.31575 17.8151 9.96833 17.6403 10.6288 17.5002C11.658 17.3013 12.5096 16.8107 13.3383 16.1807C16.5686 13.7251 19.8318 11.312 23.084 8.88447C23.8523 8.30854 24.3833 8.48816 24.6339 9.42357C25.9921 14.4921 27.3503 19.5614 28.7088 24.6312C28.9561 25.5542 28.5753 25.9771 27.6117 25.8622L17.2839 24.6315C17.0792 24.6023 16.8692 24.5837 16.5882 24.5565Z" fill="white"/>
<path d="M33.2992 21.4022C33.468 22.0971 32.9213 22.67 32.3653 22.4541C31.2466 22.0208 30.1493 21.5296 29.0639 21.0178C28.6777 20.8352 28.5752 20.4373 28.7537 20.0399C28.9322 19.6425 29.2968 19.4576 29.692 19.6163C30.7901 20.057 31.8719 20.5401 32.9483 21.0339C33.1221 21.1124 33.2324 21.3288 33.2992 21.4022Z" fill="white"/>
<path d="M30.5766 10.7847C30.4576 11.1057 30.4126 11.374 30.2752 11.5728C29.6683 12.4336 29.0395 13.2776 28.4081 14.1234C28.0823 14.5561 27.6179 14.6519 27.2496 14.3907C26.8544 14.1132 26.8056 13.6404 27.1434 13.1757C27.762 12.3241 28.3896 11.4794 29.0142 10.6313C29.2256 10.3451 29.508 10.1443 29.8586 10.278C30.1029 10.3673 30.3079 10.5892 30.5766 10.7847Z" fill="white"/>
<path d="M30.0454 17.4765C29.6313 17.5874 29.2212 17.7096 28.802 17.8096C28.352 17.9128 27.9409 17.6795 27.821 17.278C27.6953 16.8586 27.9368 16.4207 28.4034 16.2875C29.2287 16.052 30.0557 15.8304 30.8844 15.6227C31.3645 15.5013 31.778 15.74 31.8919 16.1729C32.0059 16.6057 31.763 17.0039 31.2838 17.1477C30.8753 17.2643 30.4586 17.3657 30.0454 17.4765Z" fill="white"/>
</svg>
