<svg width="492" height="100" viewBox="0 0 492 100" fill="none" xmlns="http://www.w3.org/2000/svg">
<mask id="mask0_3506_8845" style="mask-type:alpha" maskUnits="userSpaceOnUse" x="0" y="0" width="492" height="100">
<rect width="492" height="100" fill="#D9D9D9"/>
</mask>
<g mask="url(#mask0_3506_8845)">
<path d="M-35 40.8047C-35 40.8047 292.402 -36.2882 544.731 132.999H-35V40.8047Z" fill="#CFCFCF"/>
<g opacity="0.7">
<path d="M166.445 32.6241L167.226 16.5849L217.018 19.0182L216.237 35.0908L217.743 35.2694L218.603 17.6006L165.797 15L164.949 32.3451C165.454 32.3992 165.954 32.4925 166.445 32.6241Z" fill="#CFCFCF"/>
</g>
<path d="M550.256 133H-35V52.8603C108.058 19.6547 237.264 33.4615 270.57 37.9708C275.983 38.6963 278.863 39.1874 278.863 39.1874C278.863 39.1874 287.402 40.3036 302.403 43.3172C306.309 44.0985 310.651 44.9914 315.395 46.0183C326.925 48.5185 340.832 51.8 356.559 56.0637L358.791 56.6664C376.862 61.5552 397.265 67.694 419.275 75.2727C464.472 90.8226 508.285 110.133 550.256 133Z" fill="white"/>
<g opacity="0.7">
<path d="M203.131 86.7462C196.233 86.7462 189.023 86.5453 181.667 86.1547C143.874 84.1121 104.016 76.5111 104.552 66.4434C104.809 61.8783 112.89 58.5075 128.572 56.398C143.305 54.4558 162.749 53.9982 183.33 55.1032C221.124 57.1458 260.981 64.7468 260.446 74.8145C260.2 79.3796 252.108 82.7392 236.426 84.8599C225.379 86.1973 214.258 86.8274 203.131 86.7462ZM161.833 56.7886C150.811 56.7058 139.794 57.3284 128.851 58.6526C112.789 60.7621 106.918 64.1106 106.751 66.5661C106.416 72.8389 137.133 81.5115 181.746 83.9224C202.205 85.0385 221.503 84.5697 236.091 82.6499C252.175 80.5181 258.046 77.1696 258.18 74.7364C258.515 68.4524 227.798 59.7911 183.185 57.3802C175.953 56.9784 168.72 56.7886 161.856 56.7886H161.833Z" fill="#F2F2F2"/>
<path d="M194.971 68.5658C195.041 67.2731 189.508 65.9236 182.614 65.5514C175.72 65.1793 170.075 65.9254 170.005 67.2181C169.935 68.5107 175.468 69.8603 182.362 70.2325C189.256 70.6046 194.901 69.8584 194.971 68.5658Z" fill="#F2F2F2"/>
<path d="M481.434 133H475.853C423.684 110.565 366.213 93.6887 304.691 82.7727C247.276 72.7656 189.107 67.7168 130.827 67.6822C58.2772 67.459 -4.1941 74.647 -35 79.7367V77.5044C-4.4843 72.504 56.3462 65.4834 127.233 65.4834H130.783C189.185 65.5145 247.477 70.5633 305.015 80.5738C368.58 91.8358 427.848 109.46 481.434 133Z" fill="#F2F2F2"/>
</g>
<g style="mix-blend-mode:multiply" opacity="0.3">
<path d="M209.06 70.1048C200.632 72.1794 191.946 73.0104 183.277 72.5715C174.613 72.0642 166.07 70.2931 157.918 67.3144C174.857 63.0739 192.683 64.0465 209.06 70.1048Z" fill="#606060"/>
</g>
<path d="M205.98 41.9215C207.493 47.299 206.936 53.0486 204.417 58.0349C201.898 63.0212 197.601 66.8818 192.374 68.8544C191.749 69.085 191.113 69.2971 190.465 69.4906C185.848 70.7811 180.938 70.5548 176.459 68.8447C171.98 67.1347 168.169 64.0315 165.586 59.9921C165.125 59.276 164.711 58.5303 164.347 57.7598C163.747 56.5387 163.261 55.2646 162.896 53.9537C162.581 52.8572 162.354 51.7376 162.216 50.6052C161.662 45.9486 162.582 41.2355 164.846 37.1291C167.111 33.0226 170.606 29.7295 174.839 27.7128C175.974 27.175 177.155 26.738 178.366 26.4069C182.115 25.3472 186.076 25.2933 189.852 26.2507C192.89 27.0233 195.733 28.4222 198.199 30.3577C200.665 32.2932 202.7 34.7227 204.172 37.4904C204.933 38.8976 205.539 40.3834 205.98 41.9215Z" fill="white"/>
<path opacity="0.4" d="M165.193 59.3669C165.19 59.3891 165.19 59.4117 165.193 59.4339C165.23 59.4996 165.271 59.563 165.316 59.6236C166.32 59.5566 167.604 59.3557 167.916 59.3111L168.128 59.512L168.229 59.6125L168.541 59.9027L168.887 60.2152H168.943L169.244 60.4719L169.345 60.55L169.59 60.7509L169.713 60.8514L169.936 61.03L170.07 61.1304L170.294 61.2867L170.428 61.3871L170.64 61.5434L170.774 61.6439L170.986 61.789C171.03 61.8251 171.079 61.8551 171.131 61.8783L171.332 62.0234L171.466 62.1126L171.678 62.2466L171.812 62.3247L172.012 62.4587L172.146 62.5368L172.347 62.6596L172.47 62.7265L172.682 62.8493L172.794 62.9163L173.017 63.0391H173.095L173.341 63.173H173.408C173.809 63.3962 174.189 63.586 174.524 63.7422L174.736 63.8427L174.937 63.932L175.115 64.0101L175.283 64.0771L175.439 64.144H175.584L176.019 64.3115C177.102 65.9703 178.359 67.5082 179.77 68.8989L179.491 69.1109L179.346 69.2114H179.267L179.156 69.3007L179.301 69.6913H179.357L179.658 69.7583L179.814 69.6467L179.948 69.5351L180.172 69.3677C182.538 69.9369 188.799 68.9435 189.335 68.8542L189.603 68.9212H189.726H189.916L190.407 69.0328H190.474H190.742H190.976L191.489 68.8654H191.177C190.429 68.7203 189.737 68.5529 189.391 68.4747C190.164 66.8814 190.748 65.2032 191.132 63.4744C194.096 62.0854 196.661 59.9699 198.588 57.3243C200.194 57.3356 201.797 57.1672 203.365 56.8221V58.1391C203.371 58.247 203.371 58.355 203.365 58.4628C203.365 58.5856 203.365 58.6972 203.365 58.82V58.8758C203.365 58.9986 203.365 59.1102 203.365 59.233C203.466 59.0767 203.555 58.9093 203.644 58.7419V58.3066C203.644 58.2173 203.644 58.1168 203.644 58.0275V56.8109C203.868 56.3533 205.977 51.8105 205.787 48.6518V48.596C205.784 48.5738 205.784 48.5512 205.787 48.529C205.808 48.493 205.827 48.4557 205.843 48.4174L205.91 48.2723C205.932 48.2181 205.958 48.1658 205.988 48.1161C206.021 48.0358 206.058 47.9576 206.1 47.8817C206.1 47.8035 206.178 47.7142 206.211 47.6249V47.5691C206.211 47.4687 206.29 47.3682 206.334 47.2566C206.379 47.145 206.334 46.799 206.334 46.5758V46.6427L206.234 46.9218C206.232 46.9589 206.232 46.9962 206.234 47.0334C206.234 47.1115 206.178 47.1785 206.156 47.2454V47.3459L206.055 47.5915L205.955 47.8147L205.888 47.9598L205.821 48.1049C205.801 48.1506 205.778 48.1953 205.754 48.2388V48.3281C205.285 47.3794 203.455 43.6961 202.807 42.7473C202.807 42.7473 202.807 42.5799 202.707 42.4013V42.312V42.2451V42.1446V42.0665V41.9772V41.8656V41.7763V41.6423V41.5419V41.408V41.2963V41.1512V41.0396C202.712 40.9839 202.712 40.9279 202.707 40.8722V40.7606L202.64 40.5932V40.4704L202.573 40.2918V40.169L202.506 39.9793V39.8565L202.439 39.6556L202.383 39.5216L202.305 39.3207V39.1868L202.227 38.9859V38.852C202.192 38.7833 202.163 38.7125 202.138 38.6399V38.5059L202.037 38.2939L201.981 38.1599L201.881 37.9367C201.876 37.8922 201.876 37.8473 201.881 37.8028C201.881 37.7246 201.803 37.6577 201.769 37.5795V37.4456L201.658 37.2224L201.591 37.0884C201.591 37.0215 201.512 36.9433 201.479 36.8652L201.412 36.7424C201.375 36.6621 201.334 36.5838 201.289 36.508L201.233 36.3853L201.099 36.1397C201.083 36.1084 201.065 36.0785 201.044 36.0504L200.876 35.7602V35.7044C200.753 35.4812 200.608 35.2579 200.474 35.0459V34.9901L200.296 34.7222L200.229 34.6329L200.073 34.4208L199.994 34.3204L199.872 34.1529C199.943 33.0641 199.86 31.9707 199.626 30.9049C199.631 30.8604 199.631 30.8155 199.626 30.771L199.09 30.3357C199.233 30.5267 199.339 30.7424 199.403 30.9719C199.613 31.9354 199.696 32.9224 199.648 33.9074C197.907 32.5122 192.494 31.1951 191.835 31.0389C191.11 29.4762 188.61 27.6234 187.795 27.043C188.844 26.8086 190.652 26.5519 191.467 26.4403L190.809 26.2617C189.692 26.418 188.264 26.6412 187.46 26.831L185.976 26.7305H182.103H181.846H181.712H181.455H180.417H180.16H180.026H179.759H179.636H179.346H179.256C178.869 26.79 178.497 26.857 178.14 26.9314H178.04L177.772 26.9984H177.649L177.426 27.0654H177.292H177.113C176.817 26.9371 176.498 26.8689 176.176 26.8644L175.54 27.1212C175.974 27.0904 176.411 27.128 176.834 27.2328C175.134 28.7428 173.597 30.4261 172.247 32.2555L172.191 32.3448L172.269 32.4229C173.808 33.9974 175.233 35.6797 176.533 37.4568L176.6 37.5349H176.7C178.642 36.7424 185.406 36.7424 186.188 36.7424C187.39 39.5461 188.445 42.4111 189.346 45.3257V45.4261H189.447C191.288 45.4261 198.03 48.2723 198.097 48.3058H198.209L198.264 48.2053C198.499 47.8147 201.312 44.7006 202.874 42.9929C203.644 44.1872 205.642 48.2388 205.81 48.5737C206.011 51.5873 203.946 56.0854 203.711 56.61C202.111 56.9692 200.474 57.1452 198.834 57.1346H198.767V57.2016C198.767 57.2016 195.619 61.6662 191.322 63.3404H191.255V63.4074C190.942 64.6575 190.027 67.9501 189.436 68.4971C188.866 68.5863 182.616 69.6132 180.361 68.9993C178.967 67.6173 177.714 66.0992 176.622 64.4677C177.392 64.0324 181.712 61.5769 183.185 60.9072H183.274V60.8179C183.274 60.7509 182.616 54.2549 182.393 51.0404V50.9399H182.292C180.596 50.5158 174.479 46.2297 174.423 46.1851H174.356H174.289C171.742 47.4718 169.304 48.965 167.001 50.6497V50.7167C167.001 50.7725 167.548 56.0184 168.017 58.9874C167.447 59.1102 166.153 59.2999 165.193 59.3669ZM190.652 31.117V31.1728L190.563 31.2621L190.474 31.3626L190.384 31.4518L190.284 31.5635L190.206 31.6528L190.061 31.809L189.871 32.0211L189.726 32.1773L189.67 32.2555L189.536 32.4117L189.469 32.4899L189.346 32.635L189.268 32.7243C189.228 32.7705 189.191 32.819 189.157 32.8694L189.09 32.9475L188.967 33.1038L188.9 33.1819L188.777 33.327L188.71 33.4163L188.587 33.5614L188.532 33.6395L188.23 33.9744V34.0413L188.085 34.2087V34.2646L187.929 34.4543L187.594 34.9008L187.46 35.0793V35.1352L187.348 35.2803V35.3472L187.259 35.47L187.203 35.537L187.114 35.6598L187.036 35.7825L186.958 35.8941L186.891 35.9946L186.802 36.1174L186.478 36.5527C185.674 36.5527 179.111 36.5527 176.991 37.3228C175.709 35.609 174.322 33.9763 172.838 32.4341C174.079 30.7027 175.497 29.1054 177.069 27.6681L177.292 27.6011H177.426L177.738 27.523H177.906H178.096H178.274H178.453H178.654H178.821H179.022H179.201H179.413H179.58H179.792H179.971H180.172H180.35H180.741H180.942H185.261H185.909H186.467C186.824 27.2774 189.86 29.4428 190.652 31.117ZM202.294 41.4414C202.294 41.5196 202.35 41.5977 202.372 41.6647C202.377 41.7278 202.377 41.7913 202.372 41.8544V42.0218V42.1558V42.2674V42.3567V42.4237V42.4906C201.87 43.0375 198.331 46.9552 197.729 47.7142C196.858 47.3571 191.032 45.002 189.179 44.868C188.28 42.0605 187.222 39.3065 186.009 36.6196L186.612 35.7937L186.69 35.6821V35.6151L186.757 35.5258L186.824 35.4365L186.902 35.3361V35.2468L186.98 35.1463L187.058 35.0459L187.125 34.9566L187.215 34.845L187.281 34.7557L187.382 34.6329L187.449 34.5436L187.561 34.3985V34.3204L187.728 34.1195L187.907 33.8851L188.063 33.6953V33.6172L188.186 33.4721L188.253 33.3828L188.364 33.2377L188.442 33.1484L188.554 33.0145L188.632 32.914L188.732 32.7801L188.822 32.6908L188.922 32.5568L189.012 32.4564L189.112 32.3448L189.201 32.2332L189.291 32.1327L189.391 32.0211L189.48 31.9206L189.57 31.809L190.463 31.742L190.529 31.6639L190.641 31.5523L190.708 31.4742L190.809 31.3737L190.864 31.3179C191.601 31.4965 197.416 32.9252 198.778 34.298C200.308 36.4858 201.493 38.8948 202.294 41.4414ZM168.139 59.0879C167.704 56.331 167.202 51.4645 167.135 50.8171C169.379 49.1785 171.753 47.7263 174.234 46.4753C174.937 46.9664 180.261 50.6609 182.047 51.1855C182.259 54.2214 182.828 59.9585 182.917 60.7733C181.299 61.5322 176.901 64.0324 176.354 64.345H176.299H176.209H176.142H176.075H176.008H175.93H175.852H175.752H175.673H175.573H175.473H175.372H175.26H175.149H175.037L174.914 64.278H174.803L174.658 64.211H174.546L174.401 64.144L174.278 64.0771L174.111 63.999H173.999L173.709 63.8427H173.642L173.419 63.7087L173.296 63.6418L173.106 63.5413L172.972 63.4632L172.794 63.3627L172.649 63.2734L172.47 63.1618L172.325 63.0725L172.146 62.9609L171.99 62.8605L171.812 62.7489L171.488 61.8783L171.309 61.7555L171.142 61.6439L170.963 61.5211L170.796 61.4095L170.617 61.2755L170.461 61.1527L170.372 60.9853L170.215 60.8625L170.026 60.7174L169.869 60.5947L169.68 60.4384L169.523 60.3045L169.334 60.1482L169.177 60.0143L168.965 59.8245L168.843 59.7129C168.729 59.6145 168.621 59.5102 168.519 59.4004L168.407 59.2999L168.139 59.0879ZM166.008 36.642C164.654 39.6104 163.761 42.7684 163.362 46.0065V46.0958H163.273C163.217 46.0958 162.882 46.453 162.157 49.8907L162.09 48.8974C162.626 46.4976 162.927 46.0065 163.094 45.8837C163.501 42.6544 164.393 39.5049 165.74 36.5415C165.74 36.4299 165.74 36.0951 165.74 35.6709L165.985 35.2803C165.985 36.0058 165.985 36.5862 165.985 36.5973L166.008 36.642Z" fill="#420320"/>
<path d="M182.997 60.7627H183.053C183.053 60.7627 187.83 62.2472 191.313 63.4303H191.435V63.5531C191.313 64.0219 190.319 68.174 189.504 68.8102C189.225 68.8102 182.606 69.9263 180.24 69.3124C178.775 67.8763 177.469 66.2858 176.345 64.5688L176.289 64.4572L176.401 64.3902C176.401 64.3902 181.379 61.477 182.997 60.7627Z" fill="#420320"/>
<path d="M198.704 57.4701V57.3697C198.436 56.2535 198.034 48.5186 198.012 48.1837C198.324 47.6703 202.588 43.0048 202.767 42.8039L202.889 42.6699L202.99 42.815C203.704 43.8307 205.959 48.3958 206.048 48.619C206.282 51.8782 203.994 56.6665 203.905 56.8674H203.849C202.204 57.2585 200.518 57.4497 198.827 57.4367L198.704 57.4701Z" fill="#420320"/>
<path d="M162.725 53.3288C162.443 52.23 162.249 51.1102 162.145 49.9804L162.078 48.987C162.737 46.0515 163.049 45.9734 163.194 45.9287H163.284L163.339 45.9957C164.462 47.6243 165.692 49.1756 167.023 50.6389H167.078V50.717C167.078 50.717 167.637 56.1639 168.105 59.0993V59.2445H167.971C167.971 59.2445 166.431 59.49 165.293 59.5681C165.248 59.5075 165.207 59.4441 165.17 59.3784C164.06 57.4942 163.236 55.4554 162.725 53.3288Z" fill="#420320"/>
<path d="M198.21 30.3248L198.734 30.7601C198.739 30.8046 198.739 30.8495 198.734 30.894C198.972 31.9933 199.055 33.1204 198.98 34.2425V34.5439L198.768 34.3318C197.328 32.8696 190.832 31.3405 190.765 31.3182H190.698V31.2512C189.928 29.4877 186.501 27.1549 186.468 27.1326L186.211 26.954L186.512 26.887C187.294 26.6861 188.745 26.4629 189.861 26.3066L190.519 26.4852C193.306 27.2593 195.917 28.5629 198.21 30.3248Z" fill="#420320"/>
<path d="M175.486 27.4452L176.122 27.1885C176.467 27.1888 176.807 27.2691 177.115 27.4229L177.305 27.5345L177.115 27.6573C175.364 29.1694 173.788 30.8729 172.416 32.7358C172.416 32.7358 167.304 35.2248 166.032 36.6646L165.809 36.9214V36.5753C165.809 36.5753 165.809 36.1959 165.809 35.6713L166.054 35.2806C168.4 31.8352 171.669 29.1198 175.486 27.4452Z" fill="#420320"/>
<path d="M189.562 45.2481V45.3262H189.506C188.099 46.7772 182.463 50.9628 182.228 51.1302H182.161C180.42 50.695 174.46 46.5205 174.203 46.3419V46.2861C173.947 45.2369 176.279 38.3838 176.547 37.6024V37.5466H176.603C178.701 36.6872 185.956 36.7318 186.269 36.7318H186.336V36.7988C187.117 38.1159 189.461 44.9579 189.562 45.2481Z" fill="#420320"/>
<g style="mix-blend-mode:multiply" opacity="0.3">
<path d="M205.98 41.9212C207.494 47.2988 206.936 53.0483 204.417 58.0346C201.898 63.0209 197.601 66.8815 192.374 68.8541C191.749 69.0847 191.113 69.2968 190.466 69.4903C185.848 70.7809 180.939 70.5545 176.46 68.8445C171.981 67.1344 168.169 64.0312 165.587 59.9918C165.125 59.2758 164.711 58.53 164.348 57.7595C176.715 67.1575 204.987 55.5272 204.217 37.4678C204.964 38.884 205.555 40.3773 205.98 41.9212Z" fill="#606060"/>
</g>
</g>
</svg>
