<svg width="619" height="227" viewBox="0 0 619 227" fill="none" xmlns="http://www.w3.org/2000/svg">
<path d="M221.139 182.877C223.186 183.909 424.554 284.665 626.34 176.906V130.413C592.973 154.244 454.048 256.058 221.139 182.877Z" fill="#F2F2F2"/>
<path d="M0.0017395 0C18.6809 39.7721 86.8128 94.7519 89.1328 96.6113C50.4184 61.3341 26.9031 19.2506 17.3503 0H0.0017395Z" fill="#F2F2F2"/>
<path d="M163.625 0C168.655 22.5293 177.128 44.1489 188.743 64.0976C214.756 108.825 255.253 143.337 303.539 161.929C329.434 171.858 356.936 176.932 384.67 176.897C385.881 176.897 387.075 176.897 388.269 176.897C389.028 176.897 389.77 176.897 390.521 176.846C391.271 176.795 391.962 176.846 392.679 176.778C393.395 176.71 394.265 176.718 395.058 176.684C395.621 176.684 396.201 176.633 396.764 176.599C397.327 176.565 398.112 176.531 398.777 176.497L400.995 176.343L403.187 176.181C403.244 176.186 403.301 176.186 403.357 176.181C404.21 176.113 405.063 176.053 405.874 175.968C407.687 175.797 409.501 175.607 411.315 175.396C412.978 175.2 414.625 174.987 416.271 174.757C418.181 174.501 420.083 174.202 421.977 173.904L424.774 173.426C425.704 173.264 426.625 173.093 427.555 172.914L430.319 172.368C431.248 172.172 432.169 171.985 433.082 171.78C433.995 171.575 434.677 171.43 435.47 171.243C442.703 169.596 449.808 167.583 456.751 165.272L458.661 164.615C459.514 164.351 460.265 164.061 461.067 163.762L463.864 162.739L465.809 161.997C514.108 143.391 554.606 108.853 580.605 64.0976C592.218 44.1485 600.687 22.5289 605.715 0L163.625 0Z" fill="#F2F2F2"/>
<path d="M169.33 0C174.176 21.1343 182.129 41.4331 192.93 60.2338C193.297 60.8735 193.664 61.5047 194.039 62.1359C219.435 105.364 258.736 138.706 305.526 156.717C306.958 157.263 308.391 157.8 309.841 158.329C333.845 166.954 359.163 171.35 384.669 171.319C410.197 171.349 435.535 166.945 459.556 158.304C508.175 140.729 549.119 106.707 575.298 62.1273C575.682 61.4962 576.049 60.865 576.407 60.2253C587.209 41.4278 595.163 21.1317 600.008 0L169.33 0Z" fill="white"/>
<path d="M363.689 29.6563C370.708 29.6563 377.702 29.6052 384.696 29.6563L405.687 29.7928C412.706 29.8781 419.726 29.989 426.891 30.2875C420.091 32.5192 413.08 34.0482 405.968 34.8507C398.895 35.7272 391.773 36.1517 384.645 36.1215C377.515 36.1157 370.392 35.6513 363.322 34.7313C356.235 33.8612 349.237 32.3743 342.408 30.2875C349.632 29.7502 356.66 29.7672 363.689 29.6563ZM192.932 60.2338C193.956 59.3041 194.988 58.3745 196.02 57.4618L199.73 54.2463L201.581 52.6513C202.17 52.0975 202.813 51.6032 203.5 51.1757C206.323 49.6063 209.018 47.8237 211.79 46.169L214.759 44.3523C211.914 29.7416 210.526 14.8848 210.613 0L322.449 0C328.821 10.5593 335.695 21.2038 342.459 30.2875L296.827 88.824C296.896 88.969 296.955 89.1055 297.032 89.242C297.715 90.6237 298.516 91.9884 299.284 93.3531C300.862 96.0569 302.696 98.6156 304.401 101.243C307.821 106.59 311.669 111.65 315.908 116.374C320.191 121.145 324.834 125.581 329.793 129.645C332.215 131.769 334.911 133.586 337.47 135.539C337.47 135.539 349.044 141.211 385.072 141.603C421.091 141.211 432.034 135.181 432.034 135.181C434.473 133.355 436.964 131.624 439.258 129.62C444.236 125.555 448.895 121.115 453.195 116.34C457.462 111.617 461.344 106.56 464.803 101.217C466.56 98.5815 468.411 96.0313 470.015 93.3275C470.791 91.9543 471.601 90.5981 472.301 89.2078C472.377 89.0799 472.446 88.9349 472.514 88.7984L426.908 30.2875C433.671 21.2038 440.555 10.5593 446.917 0H558.736C558.824 14.8848 557.435 29.7416 554.591 44.3523L557.559 46.1435C560.331 47.7981 563.018 49.5552 565.85 51.1502C566.538 51.5857 567.181 52.0885 567.769 52.6513L569.62 54.2463L573.33 57.4618C574.353 58.3745 575.386 59.2956 576.409 60.2253C577.825 61.4962 579.224 62.7841 580.605 64.0976C578.82 63.4664 577.052 62.8097 575.3 62.1273C574.004 61.6326 572.741 61.1124 571.402 60.6091L566.856 58.7497L564.587 57.8115C563.815 57.5431 563.072 57.1973 562.37 56.7795C559.7 54.9627 556.903 53.3678 554.165 51.6619L551.606 50.101C519.8 77.9662 487.474 89.1055 478.143 91.8946C478.086 92.0026 478.035 92.1049 477.99 92.2016C477.222 93.7113 476.36 95.1613 475.533 96.6198C473.862 99.5235 472.025 102.329 470.032 105.021C467.985 107.665 465.767 110.139 463.481 112.595L460.001 116.16L456.368 119.572C451.464 124.002 446.201 128.016 440.631 131.573C438.115 133.279 435.411 134.771 432.75 136.272C438.891 144.802 450.449 152.845 459.524 158.321C461.81 159.702 463.933 160.879 465.776 161.946L463.831 162.688L461.033 163.711C460.232 163.993 459.438 164.283 458.628 164.564L456.718 165.221C449.775 167.549 442.67 169.562 435.437 171.191C434.644 171.379 433.842 171.558 433.049 171.729C432.256 171.899 431.215 172.121 430.285 172.317L427.522 172.863C426.592 173.042 425.671 173.213 424.741 173.375L421.944 173.853C420.05 174.168 418.148 174.467 416.238 174.705C414.591 174.936 412.945 175.149 411.282 175.345C409.474 175.561 407.66 175.752 405.84 175.917C404.987 176.002 404.134 176.062 403.324 176.13C403.267 176.135 403.21 176.135 403.154 176.13L400.962 176.292L398.744 176.445C398.079 176.445 397.405 176.522 396.731 176.548C396.057 176.573 395.588 176.616 395.025 176.633C394.232 176.633 393.439 176.71 392.646 176.727C391.852 176.744 391.213 176.778 390.488 176.795C389.763 176.812 388.995 176.838 388.236 176.846C387.042 176.846 385.848 176.846 384.637 176.846C356.903 176.881 329.401 171.807 303.506 161.877C305.357 160.845 307.506 159.634 309.809 158.278C318.927 152.862 330.586 145.058 336.71 136.486C333.896 134.891 331.013 133.39 328.343 131.522C326.979 130.618 325.58 129.756 324.241 128.801L320.283 125.867C318.927 124.911 317.724 123.837 316.428 122.762C315.131 121.687 313.869 120.681 312.683 119.521C307.754 115.061 303.211 110.19 299.105 104.961C297.12 102.271 295.3 99.4622 293.655 96.5516C292.844 95.093 291.991 93.6431 291.241 92.1249C291.19 92.031 291.138 91.9202 291.096 91.8263C281.714 88.9946 249.422 77.8468 217.676 50.0328L215.117 51.5937C212.379 53.2995 209.573 54.9116 206.912 56.7112C206.212 57.1286 205.472 57.4743 204.703 57.7433L202.434 58.6815L197.888 60.5409L193.981 62.0676C192.224 62.7415 190.467 63.3982 188.685 64.0294C190.118 62.7841 191.525 61.5047 192.932 60.2338ZM363.689 29.6563C370.708 29.6563 377.702 29.6052 384.696 29.6563L405.687 29.7928C412.706 29.8781 419.726 29.989 426.891 30.2875C420.091 32.5192 413.08 34.0482 405.968 34.8507C398.895 35.7272 391.773 36.1517 384.645 36.1215C377.515 36.1157 370.392 35.6513 363.322 34.7313C356.235 33.8612 349.237 32.3743 342.408 30.2875C349.632 29.7502 356.66 29.7672 363.689 29.6563Z" fill="#F2F2F2"/>
<path d="M559.632 117.013C560.383 116.63 601.707 95.1101 626.34 31.1319V0H624.83C623.235 10.8237 611.797 74.8019 559.632 117.013Z" fill="#F2F2F2"/>
<path d="M255.617 151.6C255.617 151.6 166.375 115.87 138.664 0H121.878C121.878 0 141.146 106.855 255.617 151.6Z" fill="#F2F2F2"/>
</svg>
