<svg width="24" height="24" viewBox="0 0 24 24" fill="none" xmlns="http://www.w3.org/2000/svg">
<g clip-path="url(#clip0_4224_12684)">
<path d="M5.73078 23.9997C5.57282 23.964 5.41391 23.9312 5.25641 23.8923C3.59375 23.4822 2.40688 21.9878 2.40454 20.2703C2.39891 16.0206 2.39704 11.7714 2.405 7.52171C2.40922 5.47375 4.07328 3.80594 6.11797 3.79937C9.12547 3.78953 12.133 3.78953 15.1405 3.79937C17.1758 3.80594 18.8469 5.46531 18.852 7.49828C18.8633 11.7634 18.8619 16.0286 18.8525 20.2937C18.8488 22.1307 17.4763 23.6851 15.657 23.9575C15.613 23.964 15.5708 23.9856 15.5277 24.0001C12.2619 23.9997 8.99657 23.9997 5.73078 23.9997ZM4.27766 13.892C4.27766 15.97 4.27719 18.0475 4.27766 20.1254C4.27813 21.3306 5.06844 22.1242 6.26985 22.1242C9.17563 22.1251 12.0814 22.1251 14.9872 22.1242C16.1886 22.1237 16.9798 21.3306 16.9798 20.1254C16.9808 15.9775 16.9803 11.83 16.9798 7.68202C16.9798 6.46093 16.1928 5.67203 14.9755 5.67156C12.0777 5.67109 9.17938 5.67109 6.28157 5.67156C5.06375 5.67203 4.27766 6.46046 4.27719 7.68156C4.27719 9.75202 4.27766 11.822 4.27766 13.892Z" fill="black"/>
<path d="M19.2778 0C19.4657 0.0445312 19.6551 0.084375 19.8417 0.135C21.4542 0.572344 22.5998 2.03484 22.6026 3.70453C22.6106 8.42156 22.6064 13.1381 22.605 17.8552C22.605 18.4266 22.2046 18.8428 21.6689 18.8433C21.1256 18.8438 20.7314 18.4228 20.7314 17.8331C20.7304 13.1709 20.7314 8.50875 20.7304 3.84656C20.73 2.82047 20.1093 2.06437 19.1311 1.89937C18.9862 1.875 18.8357 1.87594 18.6876 1.87594C15.322 1.87453 11.9559 1.87594 8.59027 1.87266C8.43605 1.87266 8.2748 1.86047 8.12996 1.81406C7.77558 1.70156 7.52902 1.35234 7.51355 0.981094C7.49761 0.600938 7.70527 0.255 8.04886 0.0923437C8.11871 0.0590625 8.1909 0.0309375 8.26215 0.00046875C11.9339 0 15.6061 0 19.2778 0Z" fill="black"/>
<path d="M4.2778 13.8922C4.2778 11.8222 4.27733 9.75223 4.2778 7.68223C4.27826 6.46113 5.06436 5.67223 6.28217 5.67223C9.17998 5.67176 12.0783 5.67176 14.9761 5.67223C16.1934 5.6727 16.9805 6.4616 16.9805 7.68269C16.9809 11.8307 16.9809 15.9782 16.9805 20.1261C16.9805 21.3313 16.1892 22.1244 14.9878 22.1249C12.082 22.1258 9.17623 22.1258 6.27045 22.1249C5.06905 22.1244 4.27873 21.3313 4.27826 20.1261C4.27733 18.0477 4.2778 15.9702 4.2778 13.8922Z" fill="black"/>
</g>
<defs>
<clipPath id="clip0_4224_12684">
<rect width="24" height="24" fill="white"/>
</clipPath>
</defs>
</svg>
