<svg width="24" height="24" viewBox="0 0 24 24" fill="none" xmlns="http://www.w3.org/2000/svg">
<circle cx="12" cy="12" r="12" fill="#CDCDCD"/>
<g clip-path="url(#clip0_4237_15051)">
<path d="M12.6595 12.0004L15.4631 9.19675C15.6455 9.01438 15.6455 8.71953 15.4631 8.53716C15.2807 8.3548 14.9858 8.3548 14.8035 8.53716L11.9999 11.3408L9.19632 8.53716C9.01388 8.3548 8.7191 8.3548 8.53674 8.53716C8.35429 8.71953 8.35429 9.01438 8.53674 9.19675L11.3403 12.0004L8.53674 14.804C8.35429 14.9864 8.35429 15.2812 8.53674 15.4636C8.62762 15.5545 8.74712 15.6002 8.86653 15.6002C8.98594 15.6002 9.10536 15.5545 9.19632 15.4636L11.9999 12.66L14.8035 15.4636C14.8944 15.5545 15.0139 15.6002 15.1333 15.6002C15.2527 15.6002 15.3721 15.5545 15.4631 15.4636C15.6455 15.2812 15.6455 14.9864 15.4631 14.804L12.6595 12.0004Z" fill="black"/>
</g>
<defs>
<clipPath id="clip0_4237_15051">
<rect width="7.2" height="7.2" fill="white" transform="translate(8.3999 8.40039)"/>
</clipPath>
</defs>
</svg>
