<svg width="30" height="30" viewBox="0 0 30 30" fill="none" xmlns="http://www.w3.org/2000/svg">
<path d="M24.3926 5.60742C21.9141 3.12891 17.9033 3.12891 15.4277 5.60742L12.5889 8.44629L14.083 9.94043L16.9219 7.10156C18.498 5.52539 21.1582 5.3584 22.8984 7.10156C24.6416 8.84473 24.4746 11.502 22.8984 13.0781L20.0596 15.917L21.5566 17.4141L24.3955 14.5752C26.8682 12.0967 26.8682 8.08594 24.3926 5.60742V5.60742ZM13.0811 22.8984C11.5049 24.4746 8.84473 24.6416 7.10449 22.8984C5.36133 21.1553 5.52832 18.498 7.10449 16.9219L9.94336 14.083L8.44629 12.5859L5.60742 15.4248C3.12891 17.9033 3.12891 21.9141 5.60742 24.3896C8.08594 26.8652 12.0967 26.8682 14.5723 24.3896L17.4111 21.5508L15.917 20.0566L13.0811 22.8984V22.8984ZM7.62598 6.13477C7.58193 6.09115 7.52244 6.06668 7.46045 6.06668C7.39846 6.06668 7.33897 6.09115 7.29492 6.13477L6.13477 7.29492C6.09115 7.33897 6.06668 7.39846 6.06668 7.46045C6.06668 7.52244 6.09115 7.58193 6.13477 7.62598L22.377 23.8682C22.4678 23.959 22.6172 23.959 22.708 23.8682L23.8682 22.708C23.959 22.6172 23.959 22.4678 23.8682 22.377L7.62598 6.13477Z" fill="#9A9A9A"/>
</svg>
