<svg width="8" height="8" viewBox="0 0 8 8" fill="none" xmlns="http://www.w3.org/2000/svg">
<path d="M0 2.02235C0.0322022 1.95212 0.0544697 1.8747 0.097977 1.81269C0.206574 1.65888 0.362446 1.59961 0.550521 1.59961C2.78652 1.60132 5.02218 1.60064 7.25817 1.60064C7.33114 1.60064 7.40377 1.60029 7.47674 1.60064C7.70352 1.60132 7.86865 1.70821 7.95703 1.91204C8.04302 2.11005 7.99643 2.29401 7.84878 2.4516C7.83267 2.46873 7.81623 2.48517 7.79945 2.50161C6.66586 3.6352 5.53227 4.76947 4.39697 5.90169C4.3336 5.96472 4.25994 6.02707 4.17909 6.06099C4.00267 6.13464 3.83206 6.10518 3.68304 5.98014C3.65118 5.95342 3.62104 5.9243 3.59157 5.89518C2.47409 4.77769 1.35729 3.66021 0.239461 2.54409C0.133605 2.43824 0.0339151 2.33067 0 2.17856C0 2.12649 0 2.07442 0 2.02235Z" fill="black"/>
</svg>
