<svg width="13" height="12" viewBox="0 0 13 12" fill="none" xmlns="http://www.w3.org/2000/svg">
<path d="M6.3 6.275C6.3 6.14166 6.325 6.01266 6.375 5.888C6.425 5.76266 6.49167 5.65833 6.575 5.575L11.175 0.974997C11.3583 0.791663 11.5917 0.699997 11.875 0.699997C12.1583 0.699997 12.3917 0.791663 12.575 0.974997C12.7583 1.15833 12.85 1.39166 12.85 1.675C12.85 1.95833 12.7583 2.19166 12.575 2.375L8.675 6.275L12.575 10.175C12.7583 10.3583 12.85 10.5917 12.85 10.875C12.85 11.1583 12.7583 11.3917 12.575 11.575C12.3917 11.7583 12.1583 11.85 11.875 11.85C11.5917 11.85 11.3583 11.7583 11.175 11.575L6.575 6.975C6.475 6.875 6.40433 6.76666 6.363 6.65C6.321 6.53333 6.3 6.40833 6.3 6.275V6.275Z" fill="#9A9A9A"/>
<path d="M0.299998 6.275C0.299998 6.14166 0.324999 6.01266 0.374999 5.888C0.424999 5.76266 0.491666 5.65833 0.574999 5.575L5.175 0.974997C5.35833 0.791663 5.59167 0.699997 5.875 0.699997C6.15833 0.699997 6.39167 0.791663 6.575 0.974997C6.75833 1.15833 6.85 1.39166 6.85 1.675C6.85 1.95833 6.75833 2.19166 6.575 2.375L2.675 6.275L6.575 10.175C6.75833 10.3583 6.85 10.5917 6.85 10.875C6.85 11.1583 6.75833 11.3917 6.575 11.575C6.39167 11.7583 6.15833 11.85 5.875 11.85C5.59167 11.85 5.35833 11.7583 5.175 11.575L0.574999 6.975C0.474999 6.875 0.404332 6.76666 0.362999 6.65C0.320999 6.53333 0.299998 6.40833 0.299998 6.275V6.275Z" fill="#9A9A9A"/>
</svg>
