<svg width="16" height="16" viewBox="0 0 16 16" fill="none" xmlns="http://www.w3.org/2000/svg">
<circle cx="8" cy="8" r="8" fill="#D1D1D1"/>
<g clip-path="url(#clip0_3658_7924)">
<path d="M8.43936 7.9996L10.3084 6.13051C10.43 6.00894 10.43 5.81237 10.3084 5.69079C10.1868 5.56922 9.99024 5.56922 9.86866 5.69079L7.99958 7.55987L6.13056 5.69079C6.00892 5.56922 5.81241 5.56922 5.69083 5.69079C5.5692 5.81237 5.5692 6.00894 5.69083 6.13051L7.55986 7.9996L5.69083 9.86868C5.5692 9.99025 5.5692 10.1868 5.69083 10.3084C5.75142 10.369 5.83109 10.3995 5.9107 10.3995C5.9903 10.3995 6.06991 10.369 6.13056 10.3084L7.99958 8.43932L9.86866 10.3084C9.92931 10.369 10.0089 10.3995 10.0885 10.3995C10.1681 10.3995 10.2477 10.369 10.3084 10.3084C10.43 10.1868 10.43 9.99025 10.3084 9.86868L8.43936 7.9996Z" fill="black"/>
</g>
<defs>
<clipPath id="clip0_3658_7924">
<rect width="4.8" height="4.8" fill="white" transform="translate(5.59961 5.59961)"/>
</clipPath>
</defs>
</svg>
